<svg width="1996.85px" height="125.6px" xmlns="http://www.w3.org/2000/svg" viewBox="-748.425 12.200000000000003 1996.85 125.6" style="background: rgba(0, 0, 0, 0);" preserveAspectRatio="xMidYMid"><defs><filter id="editing-hole" x="-100%" y="-100%" width="300%" height="300%"><feFlood flood-color="#000" result="black"></feFlood><feMorphology operator="dilate" radius="2" in="SourceGraphic" result="erode"></feMorphology><feGaussianBlur in="erode" stdDeviation="4" result="blur"></feGaussianBlur><feOffset in="blur" dx="2" dy="2" result="offset"></feOffset><feComposite operator="atop" in="offset" in2="black" result="merge"></feComposite><feComposite operator="in" in="merge" in2="SourceGraphic" result="inner-shadow"></feComposite></filter></defs><g filter="url(#editing-hole)"><g transform="translate(-480.979962348938, 105.1150016784668)"><path d="M24.06-44.80L24.06-44.80Q32.64-44.80 37.50-40.70L37.50-40.70L37.50-40.70Q42.37-36.61 42.37-29.44L42.37-29.44L42.37-29.44Q42.37-22.27 37.50-18.21L37.50-18.21L37.50-18.21Q32.64-14.14 24.06-14.14L24.06-14.14L12.03-14.14L12.03 0L7.30 0L7.30-44.80L24.06-44.80ZM23.94-18.30L23.94-18.30Q30.59-18.30 34.11-21.22L34.11-21.22L34.11-21.22Q37.63-24.13 37.63-29.44L37.63-29.44L37.63-29.44Q37.63-34.88 34.11-37.79L34.11-37.79L34.11-37.79Q30.59-40.70 23.94-40.70L23.94-40.70L12.03-40.70L12.03-18.30L23.94-18.30ZM56.64-27.07L56.64-27.07Q58.24-30.46 61.41-32.19L61.41-32.19L61.41-32.19Q64.58-33.92 69.25-33.92L69.25-33.92L69.25-29.50L68.16-29.57L68.16-29.57Q62.85-29.57 59.84-26.30L59.84-26.30L59.84-26.30Q56.83-23.04 56.83-17.15L56.83-17.15L56.83 0L52.29 0L52.29-33.66L56.64-33.66L56.64-27.07ZM107.33-16.83L107.26-15.42L79.10-15.42L79.10-15.42Q79.49-10.18 83.14-6.94L83.14-6.94L83.14-6.94Q86.78-3.71 92.35-3.71L92.35-3.71L92.35-3.71Q95.49-3.71 98.11-4.83L98.11-4.83L98.11-4.83Q100.74-5.95 102.66-8.13L102.66-8.13L105.22-5.18L105.22-5.18Q102.98-2.50 99.62-1.09L99.62-1.09L99.62-1.09Q96.26 0.32 92.22 0.32L92.22 0.32L92.22 0.32Q87.04 0.32 83.04-1.89L83.04-1.89L83.04-1.89Q79.04-4.10 76.80-8L76.80-8L76.80-8Q74.56-11.90 74.56-16.83L74.56-16.83L74.56-16.83Q74.56-21.76 76.70-25.66L76.70-25.66L76.70-25.66Q78.85-29.57 82.59-31.74L82.59-31.74L82.59-31.74Q86.34-33.92 91.01-33.92L91.01-33.92L91.01-33.92Q95.68-33.92 99.39-31.74L99.39-31.74L99.39-31.74Q103.10-29.57 105.22-25.70L105.22-25.70L105.22-25.70Q107.33-21.82 107.33-16.83L107.33-16.83ZM91.01-30.02L91.01-30.02Q86.14-30.02 82.85-26.91L82.85-26.91L82.85-26.91Q79.55-23.81 79.10-18.82L79.10-18.82L102.98-18.82L102.98-18.82Q102.53-23.81 99.23-26.91L99.23-26.91L99.23-26.91Q95.94-30.02 91.01-30.02L91.01-30.02ZM125.63 0.32L125.63 0.32Q121.54 0.32 117.79-0.86L117.79-0.86L117.79-0.86Q114.05-2.05 111.94-3.84L111.94-3.84L113.98-7.42L113.98-7.42Q116.10-5.76 119.30-4.70L119.30-4.70L119.30-4.70Q122.50-3.65 125.95-3.65L125.95-3.65L125.95-3.65Q130.56-3.65 132.77-5.09L132.77-5.09L132.77-5.09Q134.98-6.53 134.98-9.15L134.98-9.15L134.98-9.15Q134.98-11.01 133.76-12.06L133.76-12.06L133.76-12.06Q132.54-13.12 130.69-13.66L130.69-13.66L130.69-13.66Q128.83-14.21 125.76-14.72L125.76-14.72L125.76-14.72Q121.66-15.49 119.17-16.29L119.17-16.29L119.17-16.29Q116.67-17.09 114.91-19.01L114.91-19.01L114.91-19.01Q113.15-20.93 113.15-24.32L113.15-24.32L113.15-24.32Q113.15-28.54 116.67-31.23L116.67-31.23L116.67-31.23Q120.19-33.92 126.46-33.92L126.46-33.92L126.46-33.92Q129.73-33.92 132.99-33.06L132.99-33.06L132.99-33.06Q136.26-32.19 138.37-30.78L138.37-30.78L136.38-27.14L136.38-27.14Q132.22-30.02 126.46-30.02L126.46-30.02L126.46-30.02Q122.11-30.02 119.90-28.48L119.90-28.48L119.90-28.48Q117.70-26.94 117.70-24.45L117.70-24.45L117.70-24.45Q117.70-22.53 118.94-21.38L118.94-21.38L118.94-21.38Q120.19-20.22 122.05-19.68L122.05-19.68L122.05-19.68Q123.90-19.14 127.17-18.56L127.17-18.56L127.17-18.56Q131.20-17.79 133.63-17.02L133.63-17.02L133.63-17.02Q136.06-16.26 137.79-14.40L137.79-14.40L137.79-14.40Q139.52-12.54 139.52-9.28L139.52-9.28L139.52-9.28Q139.52-4.86 135.84-2.27L135.84-2.27L135.84-2.27Q132.16 0.32 125.63 0.32L125.63 0.32ZM156.93 0.32L156.93 0.32Q152.83 0.32 149.09-0.86L149.09-0.86L149.09-0.86Q145.34-2.05 143.23-3.84L143.23-3.84L145.28-7.42L145.28-7.42Q147.39-5.76 150.59-4.70L150.59-4.70L150.59-4.70Q153.79-3.65 157.25-3.65L157.25-3.65L157.25-3.65Q161.86-3.65 164.06-5.09L164.06-5.09L164.06-5.09Q166.27-6.53 166.27-9.15L166.27-9.15L166.27-9.15Q166.27-11.01 165.06-12.06L165.06-12.06L165.06-12.06Q163.84-13.12 161.98-13.66L161.98-13.66L161.98-13.66Q160.13-14.21 157.06-14.72L157.06-14.72L157.06-14.72Q152.96-15.49 150.46-16.29L150.46-16.29L150.46-16.29Q147.97-17.09 146.21-19.01L146.21-19.01L146.21-19.01Q144.45-20.93 144.45-24.32L144.45-24.32L144.45-24.32Q144.45-28.54 147.97-31.23L147.97-31.23L147.97-31.23Q151.49-33.92 157.76-33.92L157.76-33.92L157.76-33.92Q161.02-33.92 164.29-33.06L164.29-33.06L164.29-33.06Q167.55-32.19 169.66-30.78L169.66-30.78L167.68-27.14L167.68-27.14Q163.52-30.02 157.76-30.02L157.76-30.02L157.76-30.02Q153.41-30.02 151.20-28.48L151.20-28.48L151.20-28.48Q148.99-26.94 148.99-24.45L148.99-24.45L148.99-24.45Q148.99-22.53 150.24-21.38L150.24-21.38L150.24-21.38Q151.49-20.22 153.34-19.68L153.34-19.68L153.34-19.68Q155.20-19.14 158.46-18.56L158.46-18.56L158.46-18.56Q162.50-17.79 164.93-17.02L164.93-17.02L164.93-17.02Q167.36-16.26 169.09-14.40L169.09-14.40L169.09-14.40Q170.82-12.54 170.82-9.28L170.82-9.28L170.82-9.28Q170.82-4.86 167.14-2.27L167.14-2.27L167.14-2.27Q163.46 0.32 156.93 0.32L156.93 0.32ZM227.65-40.70L201.66-40.70L201.66-23.10L224.83-23.10L224.83-19.01L201.66-19.01L201.66 0L196.93 0L196.93-44.80L227.65-44.80L227.65-40.70ZM230.72-44.80L245.89-44.80L245.89 0L241.28 0L241.28-40.70L230.72-40.70L230.72-44.80ZM262.53-4.10L287.17-4.10L287.17 0L255.74 0L255.74-3.26L274.37-21.50L274.37-21.50Q277.89-24.96 279.14-27.49L279.14-27.49L279.14-27.49Q280.38-30.02 280.38-32.58L280.38-32.58L280.38-32.58Q280.38-36.54 277.66-38.75L277.66-38.75L277.66-38.75Q274.94-40.96 269.89-40.96L269.89-40.96L269.89-40.96Q262.02-40.96 257.66-35.97L257.66-35.97L254.40-38.78L254.40-38.78Q257.02-41.86 261.09-43.52L261.09-43.52L261.09-43.52Q265.15-45.18 270.27-45.18L270.27-45.18L270.27-45.18Q277.12-45.18 281.12-41.95L281.12-41.95L281.12-41.95Q285.12-38.72 285.12-33.09L285.12-33.09L285.12-33.09Q285.12-29.63 283.58-26.43L283.58-26.43L283.58-26.43Q282.05-23.23 277.76-19.07L277.76-19.07L262.53-4.10ZM324.48-33.92L324.48-33.92Q331.07-33.92 334.59-30.62L334.59-30.62L334.59-30.62Q338.11-27.33 338.11-20.86L338.11-20.86L338.11 0L333.76 0L333.76-5.25L333.76-5.25Q332.22-2.62 329.25-1.15L329.25-1.15L329.25-1.15Q326.27 0.32 322.18 0.32L322.18 0.32L322.18 0.32Q316.54 0.32 313.22-2.37L313.22-2.37L313.22-2.37Q309.89-5.06 309.89-9.47L309.89-9.47L309.89-9.47Q309.89-13.76 312.99-16.38L312.99-16.38L312.99-16.38Q316.10-19.01 322.88-19.01L322.88-19.01L333.57-19.01L333.57-21.06L333.57-21.06Q333.57-25.41 331.14-27.68L331.14-27.68L331.14-27.68Q328.70-29.95 324.03-29.95L324.03-29.95L324.03-29.95Q320.83-29.95 317.89-28.90L317.89-28.90L317.89-28.90Q314.94-27.84 312.83-25.98L312.83-25.98L310.78-29.38L310.78-29.38Q313.34-31.55 316.93-32.74L316.93-32.74L316.93-32.74Q320.51-33.92 324.48-33.92L324.48-33.92ZM322.88-3.26L322.88-3.26Q326.72-3.26 329.47-5.02L329.47-5.02L329.47-5.02Q332.22-6.78 333.57-10.11L333.57-10.11L333.57-15.62L323.01-15.62L323.01-15.62Q314.37-15.62 314.37-9.60L314.37-9.60L314.37-9.60Q314.37-6.66 316.61-4.96L316.61-4.96L316.61-4.96Q318.85-3.26 322.88-3.26L322.88-3.26ZM367.62-33.92L367.62-33.92Q373.95-33.92 377.70-30.24L377.70-30.24L377.70-30.24Q381.44-26.56 381.44-19.52L381.44-19.52L381.44 0L376.90 0L376.90-19.07L376.90-19.07Q376.90-24.32 374.27-27.07L374.27-27.07L374.27-27.07Q371.65-29.82 366.78-29.82L366.78-29.82L366.78-29.82Q361.34-29.82 358.18-26.59L358.18-26.59L358.18-26.59Q355.01-23.36 355.01-17.66L355.01-17.66L355.01 0L350.46 0L350.46-33.66L354.82-33.66L354.82-27.46L354.82-27.46Q356.67-30.53 359.97-32.22L359.97-32.22L359.97-32.22Q363.26-33.92 367.62-33.92L367.62-33.92ZM419.97-47.49L424.51-47.49L424.51 0L420.16 0L420.16-6.66L420.16-6.66Q418.11-3.26 414.75-1.47L414.75-1.47L414.75-1.47Q411.39 0.32 407.17 0.32L407.17 0.32L407.17 0.32Q402.43 0.32 398.59-1.86L398.59-1.86L398.59-1.86Q394.75-4.03 392.58-7.94L392.58-7.94L392.58-7.94Q390.40-11.84 390.40-16.83L390.40-16.83L390.40-16.83Q390.40-21.82 392.58-25.73L392.58-25.73L392.58-25.73Q394.75-29.63 398.59-31.78L398.59-31.78L398.59-31.78Q402.43-33.92 407.17-33.92L407.17-33.92L407.17-33.92Q411.26-33.92 414.56-32.22L414.56-32.22L414.56-32.22Q417.86-30.53 419.97-27.26L419.97-27.26L419.97-47.49ZM407.55-3.71L407.55-3.71Q411.07-3.71 413.92-5.34L413.92-5.34L413.92-5.34Q416.77-6.98 418.40-9.98L418.40-9.98L418.40-9.98Q420.03-12.99 420.03-16.83L420.03-16.83L420.03-16.83Q420.03-20.67 418.40-23.68L418.40-23.68L418.40-23.68Q416.77-26.69 413.92-28.32L413.92-28.32L413.92-28.32Q411.07-29.95 407.55-29.95L407.55-29.95L407.55-29.95Q403.97-29.95 401.12-28.32L401.12-28.32L401.12-28.32Q398.27-26.69 396.64-23.68L396.64-23.68L396.64-23.68Q395.01-20.67 395.01-16.83L395.01-16.83L395.01-16.83Q395.01-12.99 396.64-9.98L396.64-9.98L396.64-9.98Q398.27-6.98 401.12-5.34L401.12-5.34L401.12-5.34Q403.97-3.71 407.55-3.71L407.55-3.71ZM471.10-33.92L471.10-33.92Q477.44-33.92 481.18-30.24L481.18-30.24L481.18-30.24Q484.93-26.56 484.93-19.52L484.93-19.52L484.93 0L480.38 0L480.38-19.07L480.38-19.07Q480.38-24.32 477.76-27.07L477.76-27.07L477.76-27.07Q475.14-29.82 470.27-29.82L470.27-29.82L470.27-29.82Q464.83-29.82 461.66-26.59L461.66-26.59L461.66-26.59Q458.50-23.36 458.50-17.66L458.50-17.66L458.50 0L453.95 0L453.95-33.66L458.30-33.66L458.30-27.46L458.30-27.46Q460.16-30.53 463.46-32.22L463.46-32.22L463.46-32.22Q466.75-33.92 471.10-33.92L471.10-33.92ZM509.06-33.92L509.06-33.92Q515.65-33.92 519.17-30.62L519.17-30.62L519.17-30.62Q522.69-27.33 522.69-20.86L522.69-20.86L522.69 0L518.34 0L518.34-5.25L518.34-5.25Q516.80-2.62 513.82-1.15L513.82-1.15L513.82-1.15Q510.85 0.32 506.75 0.32L506.75 0.32L506.75 0.32Q501.12 0.32 497.79-2.37L497.79-2.37L497.79-2.37Q494.46-5.06 494.46-9.47L494.46-9.47L494.46-9.47Q494.46-13.76 497.57-16.38L497.57-16.38L497.57-16.38Q500.67-19.01 507.46-19.01L507.46-19.01L518.14-19.01L518.14-21.06L518.14-21.06Q518.14-25.41 515.71-27.68L515.71-27.68L515.71-27.68Q513.28-29.95 508.61-29.95L508.61-29.95L508.61-29.95Q505.41-29.95 502.46-28.90L502.46-28.90L502.46-28.90Q499.52-27.84 497.41-25.98L497.41-25.98L495.36-29.38L495.36-29.38Q497.92-31.55 501.50-32.74L501.50-32.74L501.50-32.74Q505.09-33.92 509.06-33.92L509.06-33.92ZM507.46-3.26L507.46-3.26Q511.30-3.26 514.05-5.02L514.05-5.02L514.05-5.02Q516.80-6.78 518.14-10.11L518.14-10.11L518.14-15.62L507.58-15.62L507.58-15.62Q498.94-15.62 498.94-9.60L498.94-9.60L498.94-9.60Q498.94-6.66 501.18-4.96L501.18-4.96L501.18-4.96Q503.42-3.26 507.46-3.26L507.46-3.26ZM558.85-33.66L563.33-33.66L548.35 0L543.68 0L528.77-33.66L533.50-33.66L546.11-4.99L558.85-33.66ZM569.73 0L569.73-33.66L574.27-33.66L574.27 0L569.73 0ZM572.03-41.02L572.03-41.02Q570.62-41.02 569.66-41.98L569.66-41.98L569.66-41.98Q568.70-42.94 568.70-44.29L568.70-44.29L568.70-44.29Q568.70-45.57 569.66-46.53L569.66-46.53L569.66-46.53Q570.62-47.49 572.03-47.49L572.03-47.49L572.03-47.49Q573.44-47.49 574.40-46.56L574.40-46.56L574.40-46.56Q575.36-45.63 575.36-44.35L575.36-44.35L575.36-44.35Q575.36-42.94 574.40-41.98L574.40-41.98L574.40-41.98Q573.44-41.02 572.03-41.02L572.03-41.02ZM613.76-33.66L618.11-33.66L618.11-4.10L618.11-4.10Q618.11 4.48 613.92 8.61L613.92 8.61L613.92 8.61Q609.73 12.74 601.28 12.74L601.28 12.74L601.28 12.74Q596.61 12.74 592.42 11.36L592.42 11.36L592.42 11.36Q588.22 9.98 585.60 7.55L585.60 7.55L587.90 4.10L587.90 4.10Q590.34 6.27 593.82 7.49L593.82 7.49L593.82 7.49Q597.31 8.70 601.15 8.70L601.15 8.70L601.15 8.70Q607.55 8.70 610.56 5.73L610.56 5.73L610.56 5.73Q613.57 2.75 613.57-3.52L613.57-3.52L613.57-7.81L613.57-7.81Q611.46-4.61 608.03-2.94L608.03-2.94L608.03-2.94Q604.61-1.28 600.45-1.28L600.45-1.28L600.45-1.28Q595.71-1.28 591.84-3.36L591.84-3.36L591.84-3.36Q587.97-5.44 585.76-9.18L585.76-9.18L585.76-9.18Q583.55-12.93 583.55-17.66L583.55-17.66L583.55-17.66Q583.55-22.40 585.76-26.11L585.76-26.11L585.76-26.11Q587.97-29.82 591.81-31.87L591.81-31.87L591.81-31.87Q595.65-33.92 600.45-33.92L600.45-33.92L600.45-33.92Q604.74-33.92 608.19-32.19L608.19-32.19L608.19-32.19Q611.65-30.46 613.76-27.20L613.76-27.20L613.76-33.66ZM600.90-5.31L600.90-5.31Q604.54-5.31 607.49-6.88L607.49-6.88L607.49-6.88Q610.43-8.45 612.06-11.26L612.06-11.26L612.06-11.26Q613.70-14.08 613.70-17.66L613.70-17.66L613.70-17.66Q613.70-21.25 612.06-24.03L612.06-24.03L612.06-24.03Q610.43-26.82 607.52-28.38L607.52-28.38L607.52-28.38Q604.61-29.95 600.90-29.95L600.90-29.95L600.90-29.95Q597.25-29.95 594.34-28.42L594.34-28.42L594.34-28.42Q591.42-26.88 589.79-24.06L589.79-24.06L589.79-24.06Q588.16-21.25 588.16-17.66L588.16-17.66L588.16-17.66Q588.16-14.08 589.79-11.26L589.79-11.26L589.79-11.26Q591.42-8.45 594.34-6.88L594.34-6.88L594.34-6.88Q597.25-5.31 600.90-5.31L600.90-5.31ZM642.62-33.92L642.62-33.92Q649.22-33.92 652.74-30.62L652.74-30.62L652.74-30.62Q656.26-27.33 656.26-20.86L656.26-20.86L656.26 0L651.90 0L651.90-5.25L651.90-5.25Q650.37-2.62 647.39-1.15L647.39-1.15L647.39-1.15Q644.42 0.32 640.32 0.32L640.32 0.32L640.32 0.32Q634.69 0.32 631.36-2.37L631.36-2.37L631.36-2.37Q628.03-5.06 628.03-9.47L628.03-9.47L628.03-9.47Q628.03-13.76 631.14-16.38L631.14-16.38L631.14-16.38Q634.24-19.01 641.02-19.01L641.02-19.01L651.71-19.01L651.71-21.06L651.71-21.06Q651.71-25.41 649.28-27.68L649.28-27.68L649.28-27.68Q646.85-29.95 642.18-29.95L642.18-29.95L642.18-29.95Q638.98-29.95 636.03-28.90L636.03-28.90L636.03-28.90Q633.09-27.84 630.98-25.98L630.98-25.98L628.93-29.38L628.93-29.38Q631.49-31.55 635.07-32.74L635.07-32.74L635.07-32.74Q638.66-33.92 642.62-33.92L642.62-33.92ZM641.02-3.26L641.02-3.26Q644.86-3.26 647.62-5.02L647.62-5.02L647.62-5.02Q650.37-6.78 651.71-10.11L651.71-10.11L651.71-15.62L641.15-15.62L641.15-15.62Q632.51-15.62 632.51-9.60L632.51-9.60L632.51-9.60Q632.51-6.66 634.75-4.96L634.75-4.96L634.75-4.96Q636.99-3.26 641.02-3.26L641.02-3.26ZM684.74-5.31L686.34-2.05L686.34-2.05Q685.06-0.90 683.17-0.29L683.17-0.29L683.17-0.29Q681.28 0.32 679.23 0.32L679.23 0.32L679.23 0.32Q674.50 0.32 671.94-2.24L671.94-2.24L671.94-2.24Q669.38-4.80 669.38-9.47L669.38-9.47L669.38-29.82L663.36-29.82L663.36-33.66L669.38-33.66L669.38-41.02L673.92-41.02L673.92-33.66L684.16-33.66L684.16-29.82L673.92-29.82L673.92-9.73L673.92-9.73Q673.92-6.72 675.42-5.15L675.42-5.15L675.42-5.15Q676.93-3.58 679.74-3.58L679.74-3.58L679.74-3.58Q681.15-3.58 682.46-4.03L682.46-4.03L682.46-4.03Q683.78-4.48 684.74-5.31L684.74-5.31ZM723.97-16.83L723.90-15.42L695.74-15.42L695.74-15.42Q696.13-10.18 699.78-6.94L699.78-6.94L699.78-6.94Q703.42-3.71 708.99-3.71L708.99-3.71L708.99-3.71Q712.13-3.71 714.75-4.83L714.75-4.83L714.75-4.83Q717.38-5.95 719.30-8.13L719.30-8.13L721.86-5.18L721.86-5.18Q719.62-2.50 716.26-1.09L716.26-1.09L716.26-1.09Q712.90 0.32 708.86 0.32L708.86 0.32L708.86 0.32Q703.68 0.32 699.68-1.89L699.68-1.89L699.68-1.89Q695.68-4.10 693.44-8L693.44-8L693.44-8Q691.20-11.90 691.20-16.83L691.20-16.83L691.20-16.83Q691.20-21.76 693.34-25.66L693.34-25.66L693.34-25.66Q695.49-29.57 699.23-31.74L699.23-31.74L699.23-31.74Q702.98-33.92 707.65-33.92L707.65-33.92L707.65-33.92Q712.32-33.92 716.03-31.74L716.03-31.74L716.03-31.74Q719.74-29.57 721.86-25.70L721.86-25.70L721.86-25.70Q723.97-21.82 723.97-16.83L723.97-16.83ZM707.65-30.02L707.65-30.02Q702.78-30.02 699.49-26.91L699.49-26.91L699.49-26.91Q696.19-23.81 695.74-18.82L695.74-18.82L719.62-18.82L719.62-18.82Q719.17-23.81 715.87-26.91L715.87-26.91L715.87-26.91Q712.58-30.02 707.65-30.02L707.65-30.02ZM766.14-5.31L767.74-2.05L767.74-2.05Q766.46-0.90 764.58-0.29L764.58-0.29L764.58-0.29Q762.69 0.32 760.64 0.32L760.64 0.32L760.64 0.32Q755.90 0.32 753.34-2.24L753.34-2.24L753.34-2.24Q750.78-4.80 750.78-9.47L750.78-9.47L750.78-29.82L744.77-29.82L744.77-33.66L750.78-33.66L750.78-41.02L755.33-41.02L755.33-33.66L765.57-33.66L765.57-29.82L755.33-29.82L755.33-9.73L755.33-9.73Q755.33-6.72 756.83-5.15L756.83-5.15L756.83-5.15Q758.34-3.58 761.15-3.58L761.15-3.58L761.15-3.58Q762.56-3.58 763.87-4.03L763.87-4.03L763.87-4.03Q765.18-4.48 766.14-5.31L766.14-5.31ZM789.76 0.32L789.76 0.32Q784.90 0.32 780.99-1.89L780.99-1.89L780.99-1.89Q777.09-4.10 774.85-8L774.85-8L774.85-8Q772.61-11.90 772.61-16.83L772.61-16.83L772.61-16.83Q772.61-21.76 774.85-25.66L774.85-25.66L774.85-25.66Q777.09-29.57 780.99-31.74L780.99-31.74L780.99-31.74Q784.90-33.92 789.76-33.92L789.76-33.92L789.76-33.92Q794.62-33.92 798.53-31.74L798.53-31.74L798.53-31.74Q802.43-29.57 804.64-25.66L804.64-25.66L804.64-25.66Q806.85-21.76 806.85-16.83L806.85-16.83L806.85-16.83Q806.85-11.90 804.64-8L804.64-8L804.64-8Q802.43-4.10 798.53-1.89L798.53-1.89L798.53-1.89Q794.62 0.32 789.76 0.32L789.76 0.32ZM789.76-3.71L789.76-3.71Q793.34-3.71 796.19-5.34L796.19-5.34L796.19-5.34Q799.04-6.98 800.64-9.98L800.64-9.98L800.64-9.98Q802.24-12.99 802.24-16.83L802.24-16.83L802.24-16.83Q802.24-20.67 800.64-23.68L800.64-23.68L800.64-23.68Q799.04-26.69 796.19-28.32L796.19-28.32L796.19-28.32Q793.34-29.95 789.76-29.95L789.76-29.95L789.76-29.95Q786.18-29.95 783.33-28.32L783.33-28.32L783.33-28.32Q780.48-26.69 778.85-23.68L778.85-23.68L778.85-23.68Q777.22-20.67 777.22-16.83L777.22-16.83L777.22-16.83Q777.22-12.99 778.85-9.98L778.85-9.98L778.85-9.98Q780.48-6.98 783.33-5.34L783.33-5.34L783.33-5.34Q786.18-3.71 789.76-3.71L789.76-3.71ZM849.02-5.31L850.62-2.05L850.62-2.05Q849.34-0.90 847.46-0.29L847.46-0.29L847.46-0.29Q845.57 0.32 843.52 0.32L843.52 0.32L843.52 0.32Q838.78 0.32 836.22-2.24L836.22-2.24L836.22-2.24Q833.66-4.80 833.66-9.47L833.66-9.47L833.66-29.82L827.65-29.82L827.65-33.66L833.66-33.66L833.66-41.02L838.21-41.02L838.21-33.66L848.45-33.66L848.45-29.82L838.21-29.82L838.21-9.73L838.21-9.73Q838.21-6.72 839.71-5.15L839.71-5.15L839.71-5.15Q841.22-3.58 844.03-3.58L844.03-3.58L844.03-3.58Q845.44-3.58 846.75-4.03L846.75-4.03L846.75-4.03Q848.06-4.48 849.02-5.31L849.02-5.31ZM876.03-33.92L876.03-33.92Q882.37-33.92 886.11-30.24L886.11-30.24L886.11-30.24Q889.86-26.56 889.86-19.52L889.86-19.52L889.86 0L885.31 0L885.31-19.07L885.31-19.07Q885.31-24.32 882.69-27.07L882.69-27.07L882.69-27.07Q880.06-29.82 875.20-29.82L875.20-29.82L875.20-29.82Q869.76-29.82 866.59-26.59L866.59-26.59L866.59-26.59Q863.42-23.36 863.42-17.66L863.42-17.66L863.42 0L858.88 0L858.88-47.49L863.42-47.49L863.42-27.78L863.42-27.78Q865.28-30.72 868.54-32.32L868.54-32.32L868.54-32.32Q871.81-33.92 876.03-33.92L876.03-33.92ZM931.58-16.83L931.52-15.42L903.36-15.42L903.36-15.42Q903.74-10.18 907.39-6.94L907.39-6.94L907.39-6.94Q911.04-3.71 916.61-3.71L916.61-3.71L916.61-3.71Q919.74-3.71 922.37-4.83L922.37-4.83L922.37-4.83Q924.99-5.95 926.91-8.13L926.91-8.13L929.47-5.18L929.47-5.18Q927.23-2.50 923.87-1.09L923.87-1.09L923.87-1.09Q920.51 0.32 916.48 0.32L916.48 0.32L916.48 0.32Q911.30 0.32 907.30-1.89L907.30-1.89L907.30-1.89Q903.30-4.10 901.06-8L901.06-8L901.06-8Q898.82-11.90 898.82-16.83L898.82-16.83L898.82-16.83Q898.82-21.76 900.96-25.66L900.96-25.66L900.96-25.66Q903.10-29.57 906.85-31.74L906.85-31.74L906.85-31.74Q910.59-33.92 915.26-33.92L915.26-33.92L915.26-33.92Q919.94-33.92 923.65-31.74L923.65-31.74L923.65-31.74Q927.36-29.57 929.47-25.70L929.47-25.70L929.47-25.70Q931.58-21.82 931.58-16.83L931.58-16.83ZM915.26-30.02L915.26-30.02Q910.40-30.02 907.10-26.91L907.10-26.91L907.10-26.91Q903.81-23.81 903.36-18.82L903.36-18.82L927.23-18.82L927.23-18.82Q926.78-23.81 923.49-26.91L923.49-26.91L923.49-26.91Q920.19-30.02 915.26-30.02L915.26-30.02ZM971.58 0.32L971.58 0.32Q966.59 0.32 962.66-1.86L962.66-1.86L962.66-1.86Q958.72-4.03 956.48-7.97L956.48-7.97L956.48-7.97Q954.24-11.90 954.24-16.83L954.24-16.83L954.24-16.83Q954.24-21.76 956.48-25.66L956.48-25.66L956.48-25.66Q958.72-29.57 962.66-31.74L962.66-31.74L962.66-31.74Q966.59-33.92 971.58-33.92L971.58-33.92L971.58-33.92Q975.94-33.92 979.36-32.22L979.36-32.22L979.36-32.22Q982.78-30.53 984.77-27.26L984.77-27.26L981.38-24.96L981.38-24.96Q979.71-27.46 977.15-28.70L977.15-28.70L977.15-28.70Q974.59-29.95 971.58-29.95L971.58-29.95L971.58-29.95Q967.94-29.95 965.02-28.32L965.02-28.32L965.02-28.32Q962.11-26.69 960.48-23.68L960.48-23.68L960.48-23.68Q958.85-20.67 958.85-16.83L958.85-16.83L958.85-16.83Q958.85-12.93 960.48-9.95L960.48-9.95L960.48-9.95Q962.11-6.98 965.02-5.34L965.02-5.34L965.02-5.34Q967.94-3.71 971.58-3.71L971.58-3.71L971.58-3.71Q974.59-3.71 977.15-4.93L977.15-4.93L977.15-4.93Q979.71-6.14 981.38-8.64L981.38-8.64L984.77-6.34L984.77-6.34Q982.78-3.07 979.33-1.38L979.33-1.38L979.33-1.38Q975.87 0.32 971.58 0.32L971.58 0.32ZM1007.42 0.32L1007.42 0.32Q1002.56 0.32 998.66-1.89L998.66-1.89L998.66-1.89Q994.75-4.10 992.51-8L992.51-8L992.51-8Q990.27-11.90 990.27-16.83L990.27-16.83L990.27-16.83Q990.27-21.76 992.51-25.66L992.51-25.66L992.51-25.66Q994.75-29.57 998.66-31.74L998.66-31.74L998.66-31.74Q1002.56-33.92 1007.42-33.92L1007.42-33.92L1007.42-33.92Q1012.29-33.92 1016.19-31.74L1016.19-31.74L1016.19-31.74Q1020.10-29.57 1022.30-25.66L1022.30-25.66L1022.30-25.66Q1024.51-21.76 1024.51-16.83L1024.51-16.83L1024.51-16.83Q1024.51-11.90 1022.30-8L1022.30-8L1022.30-8Q1020.10-4.10 1016.19-1.89L1016.19-1.89L1016.19-1.89Q1012.29 0.32 1007.42 0.32L1007.42 0.32ZM1007.42-3.71L1007.42-3.71Q1011.01-3.71 1013.86-5.34L1013.86-5.34L1013.86-5.34Q1016.70-6.98 1018.30-9.98L1018.30-9.98L1018.30-9.98Q1019.90-12.99 1019.90-16.83L1019.90-16.83L1019.90-16.83Q1019.90-20.67 1018.30-23.68L1018.30-23.68L1018.30-23.68Q1016.70-26.69 1013.86-28.32L1013.86-28.32L1013.86-28.32Q1011.01-29.95 1007.42-29.95L1007.42-29.95L1007.42-29.95Q1003.84-29.95 1000.99-28.32L1000.99-28.32L1000.99-28.32Q998.14-26.69 996.51-23.68L996.51-23.68L996.51-23.68Q994.88-20.67 994.88-16.83L994.88-16.83L994.88-16.83Q994.88-12.99 996.51-9.98L996.51-9.98L996.51-9.98Q998.14-6.98 1000.99-5.34L1000.99-5.34L1000.99-5.34Q1003.84-3.71 1007.42-3.71L1007.42-3.71ZM1050.94-33.92L1050.94-33.92Q1057.28-33.92 1061.02-30.24L1061.02-30.24L1061.02-30.24Q1064.77-26.56 1064.77-19.52L1064.77-19.52L1064.77 0L1060.22 0L1060.22-19.07L1060.22-19.07Q1060.22-24.32 1057.60-27.07L1057.60-27.07L1057.60-27.07Q1054.98-29.82 1050.11-29.82L1050.11-29.82L1050.11-29.82Q1044.67-29.82 1041.50-26.59L1041.50-26.59L1041.50-26.59Q1038.34-23.36 1038.34-17.66L1038.34-17.66L1038.34 0L1033.79 0L1033.79-33.66L1038.14-33.66L1038.14-27.46L1038.14-27.46Q1040.00-30.53 1043.30-32.22L1043.30-32.22L1043.30-32.22Q1046.59-33.92 1050.94-33.92L1050.94-33.92ZM1086.14 0.32L1086.14 0.32Q1082.05 0.32 1078.30-0.86L1078.30-0.86L1078.30-0.86Q1074.56-2.05 1072.45-3.84L1072.45-3.84L1074.50-7.42L1074.50-7.42Q1076.61-5.76 1079.81-4.70L1079.81-4.70L1079.81-4.70Q1083.01-3.65 1086.46-3.65L1086.46-3.65L1086.46-3.65Q1091.07-3.65 1093.28-5.09L1093.28-5.09L1093.28-5.09Q1095.49-6.53 1095.49-9.15L1095.49-9.15L1095.49-9.15Q1095.49-11.01 1094.27-12.06L1094.27-12.06L1094.27-12.06Q1093.06-13.12 1091.20-13.66L1091.20-13.66L1091.20-13.66Q1089.34-14.21 1086.27-14.72L1086.27-14.72L1086.27-14.72Q1082.18-15.49 1079.68-16.29L1079.68-16.29L1079.68-16.29Q1077.18-17.09 1075.42-19.01L1075.42-19.01L1075.42-19.01Q1073.66-20.93 1073.66-24.32L1073.66-24.32L1073.66-24.32Q1073.66-28.54 1077.18-31.23L1077.18-31.23L1077.18-31.23Q1080.70-33.92 1086.98-33.92L1086.98-33.92L1086.98-33.92Q1090.24-33.92 1093.50-33.06L1093.50-33.06L1093.50-33.06Q1096.77-32.19 1098.88-30.78L1098.88-30.78L1096.90-27.14L1096.90-27.14Q1092.74-30.02 1086.98-30.02L1086.98-30.02L1086.98-30.02Q1082.62-30.02 1080.42-28.48L1080.42-28.48L1080.42-28.48Q1078.21-26.94 1078.21-24.45L1078.21-24.45L1078.21-24.45Q1078.21-22.53 1079.46-21.38L1079.46-21.38L1079.46-21.38Q1080.70-20.22 1082.56-19.68L1082.56-19.68L1082.56-19.68Q1084.42-19.14 1087.68-18.56L1087.68-18.56L1087.68-18.56Q1091.71-17.79 1094.14-17.02L1094.14-17.02L1094.14-17.02Q1096.58-16.26 1098.30-14.40L1098.30-14.40L1098.30-14.40Q1100.03-12.54 1100.03-9.28L1100.03-9.28L1100.03-9.28Q1100.03-4.86 1096.35-2.27L1096.35-2.27L1096.35-2.27Q1092.67 0.32 1086.14 0.32L1086.14 0.32ZM1122.18 0.32L1122.18 0.32Q1117.31 0.32 1113.41-1.89L1113.41-1.89L1113.41-1.89Q1109.50-4.10 1107.26-8L1107.26-8L1107.26-8Q1105.02-11.90 1105.02-16.83L1105.02-16.83L1105.02-16.83Q1105.02-21.76 1107.26-25.66L1107.26-25.66L1107.26-25.66Q1109.50-29.57 1113.41-31.74L1113.41-31.74L1113.41-31.74Q1117.31-33.92 1122.18-33.92L1122.18-33.92L1122.18-33.92Q1127.04-33.92 1130.94-31.74L1130.94-31.74L1130.94-31.74Q1134.85-29.57 1137.06-25.66L1137.06-25.66L1137.06-25.66Q1139.26-21.76 1139.26-16.83L1139.26-16.83L1139.26-16.83Q1139.26-11.90 1137.06-8L1137.06-8L1137.06-8Q1134.85-4.10 1130.94-1.89L1130.94-1.89L1130.94-1.89Q1127.04 0.32 1122.18 0.32L1122.18 0.32ZM1122.18-3.71L1122.18-3.71Q1125.76-3.71 1128.61-5.34L1128.61-5.34L1128.61-5.34Q1131.46-6.98 1133.06-9.98L1133.06-9.98L1133.06-9.98Q1134.66-12.99 1134.66-16.83L1134.66-16.83L1134.66-16.83Q1134.66-20.67 1133.06-23.68L1133.06-23.68L1133.06-23.68Q1131.46-26.69 1128.61-28.32L1128.61-28.32L1128.61-28.32Q1125.76-29.95 1122.18-29.95L1122.18-29.95L1122.18-29.95Q1118.59-29.95 1115.74-28.32L1115.74-28.32L1115.74-28.32Q1112.90-26.69 1111.26-23.68L1111.26-23.68L1111.26-23.68Q1109.63-20.67 1109.63-16.83L1109.63-16.83L1109.63-16.83Q1109.63-12.99 1111.26-9.98L1111.26-9.98L1111.26-9.98Q1112.90-6.98 1115.74-5.34L1115.74-5.34L1115.74-5.34Q1118.59-3.71 1122.18-3.71L1122.18-3.71ZM1148.54 0L1148.54-47.49L1153.09-47.49L1153.09 0L1148.54 0ZM1195.14-16.83L1195.07-15.42L1166.91-15.42L1166.91-15.42Q1167.30-10.18 1170.94-6.94L1170.94-6.94L1170.94-6.94Q1174.59-3.71 1180.16-3.71L1180.16-3.71L1180.16-3.71Q1183.30-3.71 1185.92-4.83L1185.92-4.83L1185.92-4.83Q1188.54-5.95 1190.46-8.13L1190.46-8.13L1193.02-5.18L1193.02-5.18Q1190.78-2.50 1187.42-1.09L1187.42-1.09L1187.42-1.09Q1184.06 0.32 1180.03 0.32L1180.03 0.32L1180.03 0.32Q1174.85 0.32 1170.85-1.89L1170.85-1.89L1170.85-1.89Q1166.85-4.10 1164.61-8L1164.61-8L1164.61-8Q1162.37-11.90 1162.37-16.83L1162.37-16.83L1162.37-16.83Q1162.37-21.76 1164.51-25.66L1164.51-25.66L1164.51-25.66Q1166.66-29.57 1170.40-31.74L1170.40-31.74L1170.40-31.74Q1174.14-33.92 1178.82-33.92L1178.82-33.92L1178.82-33.92Q1183.49-33.92 1187.20-31.74L1187.20-31.74L1187.20-31.74Q1190.91-29.57 1193.02-25.70L1193.02-25.70L1193.02-25.70Q1195.14-21.82 1195.14-16.83L1195.14-16.83ZM1178.82-30.02L1178.82-30.02Q1173.95-30.02 1170.66-26.91L1170.66-26.91L1170.66-26.91Q1167.36-23.81 1166.91-18.82L1166.91-18.82L1190.78-18.82L1190.78-18.82Q1190.34-23.81 1187.04-26.91L1187.04-26.91L1187.04-26.91Q1183.74-30.02 1178.82-30.02L1178.82-30.02ZM1237.31-5.31L1238.91-2.05L1238.91-2.05Q1237.63-0.90 1235.74-0.29L1235.74-0.29L1235.74-0.29Q1233.86 0.32 1231.81 0.32L1231.81 0.32L1231.81 0.32Q1227.07 0.32 1224.51-2.24L1224.51-2.24L1224.51-2.24Q1221.95-4.80 1221.95-9.47L1221.95-9.47L1221.95-29.82L1215.94-29.82L1215.94-33.66L1221.95-33.66L1221.95-41.02L1226.50-41.02L1226.50-33.66L1236.74-33.66L1236.74-29.82L1226.50-29.82L1226.50-9.73L1226.50-9.73Q1226.50-6.72 1228-5.15L1228-5.15L1228-5.15Q1229.50-3.58 1232.32-3.58L1232.32-3.58L1232.32-3.58Q1233.73-3.58 1235.04-4.03L1235.04-4.03L1235.04-4.03Q1236.35-4.48 1237.31-5.31L1237.31-5.31ZM1260.93 0.32L1260.93 0.32Q1256.06 0.32 1252.16-1.89L1252.16-1.89L1252.16-1.89Q1248.26-4.10 1246.02-8L1246.02-8L1246.02-8Q1243.78-11.90 1243.78-16.83L1243.78-16.83L1243.78-16.83Q1243.78-21.76 1246.02-25.66L1246.02-25.66L1246.02-25.66Q1248.26-29.57 1252.16-31.74L1252.16-31.74L1252.16-31.74Q1256.06-33.92 1260.93-33.92L1260.93-33.92L1260.93-33.92Q1265.79-33.92 1269.70-31.74L1269.70-31.74L1269.70-31.74Q1273.60-29.57 1275.81-25.66L1275.81-25.66L1275.81-25.66Q1278.02-21.76 1278.02-16.83L1278.02-16.83L1278.02-16.83Q1278.02-11.90 1275.81-8L1275.81-8L1275.81-8Q1273.60-4.10 1269.70-1.89L1269.70-1.89L1269.70-1.89Q1265.79 0.32 1260.93 0.32L1260.93 0.32ZM1260.93-3.71L1260.93-3.71Q1264.51-3.71 1267.36-5.34L1267.36-5.34L1267.36-5.34Q1270.21-6.98 1271.81-9.98L1271.81-9.98L1271.81-9.98Q1273.41-12.99 1273.41-16.83L1273.41-16.83L1273.41-16.83Q1273.41-20.67 1271.81-23.68L1271.81-23.68L1271.81-23.68Q1270.21-26.69 1267.36-28.32L1267.36-28.32L1267.36-28.32Q1264.51-29.95 1260.93-29.95L1260.93-29.95L1260.93-29.95Q1257.34-29.95 1254.50-28.32L1254.50-28.32L1254.50-28.32Q1251.65-26.69 1250.02-23.68L1250.02-23.68L1250.02-23.68Q1248.38-20.67 1248.38-16.83L1248.38-16.83L1248.38-16.83Q1248.38-12.99 1250.02-9.98L1250.02-9.98L1250.02-9.98Q1251.65-6.98 1254.50-5.34L1254.50-5.34L1254.50-5.34Q1257.34-3.71 1260.93-3.71L1260.93-3.71ZM1313.09 0.32L1313.09 0.32Q1308.99 0.32 1305.25-0.86L1305.25-0.86L1305.25-0.86Q1301.50-2.05 1299.39-3.84L1299.39-3.84L1301.44-7.42L1301.44-7.42Q1303.55-5.76 1306.75-4.70L1306.75-4.70L1306.75-4.70Q1309.95-3.65 1313.41-3.65L1313.41-3.65L1313.41-3.65Q1318.02-3.65 1320.22-5.09L1320.22-5.09L1320.22-5.09Q1322.43-6.53 1322.43-9.15L1322.43-9.15L1322.43-9.15Q1322.43-11.01 1321.22-12.06L1321.22-12.06L1321.22-12.06Q1320.00-13.12 1318.14-13.66L1318.14-13.66L1318.14-13.66Q1316.29-14.21 1313.22-14.72L1313.22-14.72L1313.22-14.72Q1309.12-15.49 1306.62-16.29L1306.62-16.29L1306.62-16.29Q1304.13-17.09 1302.37-19.01L1302.37-19.01L1302.37-19.01Q1300.61-20.93 1300.61-24.32L1300.61-24.32L1300.61-24.32Q1300.61-28.54 1304.13-31.23L1304.13-31.23L1304.13-31.23Q1307.65-33.92 1313.92-33.92L1313.92-33.92L1313.92-33.92Q1317.18-33.92 1320.45-33.06L1320.45-33.06L1320.45-33.06Q1323.71-32.19 1325.82-30.78L1325.82-30.78L1323.84-27.14L1323.84-27.14Q1319.68-30.02 1313.92-30.02L1313.92-30.02L1313.92-30.02Q1309.57-30.02 1307.36-28.48L1307.36-28.48L1307.36-28.48Q1305.15-26.94 1305.15-24.45L1305.15-24.45L1305.15-24.45Q1305.15-22.53 1306.40-21.38L1306.40-21.38L1306.40-21.38Q1307.65-20.22 1309.50-19.68L1309.50-19.68L1309.50-19.68Q1311.36-19.14 1314.62-18.56L1314.62-18.56L1314.62-18.56Q1318.66-17.79 1321.09-17.02L1321.09-17.02L1321.09-17.02Q1323.52-16.26 1325.25-14.40L1325.25-14.40L1325.25-14.40Q1326.98-12.54 1326.98-9.28L1326.98-9.28L1326.98-9.28Q1326.98-4.86 1323.30-2.27L1323.30-2.27L1323.30-2.27Q1319.62 0.32 1313.09 0.32L1313.09 0.32ZM1351.49-5.31L1353.09-2.05L1353.09-2.05Q1351.81-0.90 1349.92-0.29L1349.92-0.29L1349.92-0.29Q1348.03 0.32 1345.98 0.32L1345.98 0.32L1345.98 0.32Q1341.25 0.32 1338.69-2.24L1338.69-2.24L1338.69-2.24Q1336.13-4.80 1336.13-9.47L1336.13-9.47L1336.13-29.82L1330.11-29.82L1330.11-33.66L1336.13-33.66L1336.13-41.02L1340.67-41.02L1340.67-33.66L1350.91-33.66L1350.91-29.82L1340.67-29.82L1340.67-9.73L1340.67-9.73Q1340.67-6.72 1342.18-5.15L1342.18-5.15L1342.18-5.15Q1343.68-3.58 1346.50-3.58L1346.50-3.58L1346.50-3.58Q1347.90-3.58 1349.22-4.03L1349.22-4.03L1349.22-4.03Q1350.53-4.48 1351.49-5.31L1351.49-5.31ZM1373.12-33.92L1373.12-33.92Q1379.71-33.92 1383.23-30.62L1383.23-30.62L1383.23-30.62Q1386.75-27.33 1386.75-20.86L1386.75-20.86L1386.75 0L1382.40 0L1382.40-5.25L1382.40-5.25Q1380.86-2.62 1377.89-1.15L1377.89-1.15L1377.89-1.15Q1374.91 0.32 1370.82 0.32L1370.82 0.32L1370.82 0.32Q1365.18 0.32 1361.86-2.37L1361.86-2.37L1361.86-2.37Q1358.53-5.06 1358.53-9.47L1358.53-9.47L1358.53-9.47Q1358.53-13.76 1361.63-16.38L1361.63-16.38L1361.63-16.38Q1364.74-19.01 1371.52-19.01L1371.52-19.01L1382.21-19.01L1382.21-21.06L1382.21-21.06Q1382.21-25.41 1379.78-27.68L1379.78-27.68L1379.78-27.68Q1377.34-29.95 1372.67-29.95L1372.67-29.95L1372.67-29.95Q1369.47-29.95 1366.53-28.90L1366.53-28.90L1366.53-28.90Q1363.58-27.84 1361.47-25.98L1361.47-25.98L1359.42-29.38L1359.42-29.38Q1361.98-31.55 1365.57-32.74L1365.57-32.74L1365.57-32.74Q1369.15-33.92 1373.12-33.92L1373.12-33.92ZM1371.52-3.26L1371.52-3.26Q1375.36-3.26 1378.11-5.02L1378.11-5.02L1378.11-5.02Q1380.86-6.78 1382.21-10.11L1382.21-10.11L1382.21-15.62L1371.65-15.62L1371.65-15.62Q1363.01-15.62 1363.01-9.60L1363.01-9.60L1363.01-9.60Q1363.01-6.66 1365.25-4.96L1365.25-4.96L1365.25-4.96Q1367.49-3.26 1371.52-3.26L1371.52-3.26ZM1403.46-27.07L1403.46-27.07Q1405.06-30.46 1408.22-32.19L1408.22-32.19L1408.22-32.19Q1411.39-33.92 1416.06-33.92L1416.06-33.92L1416.06-29.50L1414.98-29.57L1414.98-29.57Q1409.66-29.57 1406.66-26.30L1406.66-26.30L1406.66-26.30Q1403.65-23.04 1403.65-17.15L1403.65-17.15L1403.65 0L1399.10 0L1399.10-33.66L1403.46-33.66L1403.46-27.07ZM1440.90-5.31L1442.50-2.05L1442.50-2.05Q1441.22-0.90 1439.33-0.29L1439.33-0.29L1439.33-0.29Q1437.44 0.32 1435.39 0.32L1435.39 0.32L1435.39 0.32Q1430.66 0.32 1428.10-2.24L1428.10-2.24L1428.10-2.24Q1425.54-4.80 1425.54-9.47L1425.54-9.47L1425.54-29.82L1419.52-29.82L1419.52-33.66L1425.54-33.66L1425.54-41.02L1430.08-41.02L1430.08-33.66L1440.32-33.66L1440.32-29.82L1430.08-29.82L1430.08-9.73L1430.08-9.73Q1430.08-6.72 1431.58-5.15L1431.58-5.15L1431.58-5.15Q1433.09-3.58 1435.90-3.58L1435.90-3.58L1435.90-3.58Q1437.31-3.58 1438.62-4.03L1438.62-4.03L1438.62-4.03Q1439.94-4.48 1440.90-5.31L1440.90-5.31ZM1451.20 0.32L1451.20 0.32Q1449.79 0.32 1448.80-0.70L1448.80-0.70L1448.80-0.70Q1447.81-1.73 1447.81-3.20L1447.81-3.20L1447.81-3.20Q1447.81-4.67 1448.80-5.66L1448.80-5.66L1448.80-5.66Q1449.79-6.66 1451.20-6.66L1451.20-6.66L1451.20-6.66Q1452.61-6.66 1453.63-5.66L1453.63-5.66L1453.63-5.66Q1454.66-4.67 1454.66-3.20L1454.66-3.20L1454.66-3.20Q1454.66-1.73 1453.63-0.70L1453.63-0.70L1453.63-0.70Q1452.61 0.32 1451.20 0.32L1451.20 0.32Z" fill="#ccc"></path></g></g><style>text {
  font-size: 64px;
  font-family: Arial Black;
  dominant-baseline: central;
  text-anchor: middle;
}</style></svg>