<svg width="1015.4375px" height="125.6px" xmlns="http://www.w3.org/2000/svg" viewBox="-257.71875 12.200000000000003 1015.4375 125.6" style="background: rgba(0, 0, 0, 0);" preserveAspectRatio="xMidYMid"><defs><filter id="editing-hole" x="-100%" y="-100%" width="300%" height="300%"><feFlood flood-color="#000" result="black"></feFlood><feMorphology operator="dilate" radius="2" in="SourceGraphic" result="erode"></feMorphology><feGaussianBlur in="erode" stdDeviation="4" result="blur"></feGaussianBlur><feOffset in="blur" dx="2" dy="2" result="offset"></feOffset><feComposite operator="atop" in="offset" in2="black" result="merge"></feComposite><feComposite operator="in" in="merge" in2="SourceGraphic" result="inner-shadow"></feComposite></filter></defs><g filter="url(#editing-hole)"><g transform="translate(-117.65002918243408, 105.1150016784668)"><path d="M38.02-40.70L12.03-40.70L12.03-23.10L35.20-23.10L35.20-19.01L12.03-19.01L12.03 0L7.30 0L7.30-44.80L38.02-44.80L38.02-40.70ZM58.62-33.92L58.62-33.92Q65.22-33.92 68.74-30.62L68.74-30.62L68.74-30.62Q72.26-27.33 72.26-20.86L72.26-20.86L72.26 0L67.90 0L67.90-5.25L67.90-5.25Q66.37-2.62 63.39-1.15L63.39-1.15L63.39-1.15Q60.42 0.32 56.32 0.32L56.32 0.32L56.32 0.32Q50.69 0.32 47.36-2.37L47.36-2.37L47.36-2.37Q44.03-5.06 44.03-9.47L44.03-9.47L44.03-9.47Q44.03-13.76 47.14-16.38L47.14-16.38L47.14-16.38Q50.24-19.01 57.02-19.01L57.02-19.01L67.71-19.01L67.71-21.06L67.71-21.06Q67.71-25.41 65.28-27.68L65.28-27.68L65.28-27.68Q62.85-29.95 58.18-29.95L58.18-29.95L58.18-29.95Q54.98-29.95 52.03-28.90L52.03-28.90L52.03-28.90Q49.09-27.84 46.98-25.98L46.98-25.98L44.93-29.38L44.93-29.38Q47.49-31.55 51.07-32.74L51.07-32.74L51.07-32.74Q54.66-33.92 58.62-33.92L58.62-33.92ZM57.02-3.26L57.02-3.26Q60.86-3.26 63.62-5.02L63.62-5.02L63.62-5.02Q66.37-6.78 67.71-10.11L67.71-10.11L67.71-15.62L57.15-15.62L57.15-15.62Q48.51-15.62 48.51-9.60L48.51-9.60L48.51-9.60Q48.51-6.66 50.75-4.96L50.75-4.96L50.75-4.96Q52.99-3.26 57.02-3.26L57.02-3.26ZM101.76-33.92L101.76-33.92Q108.10-33.92 111.84-30.24L111.84-30.24L111.84-30.24Q115.58-26.56 115.58-19.52L115.58-19.52L115.58 0L111.04 0L111.04-19.07L111.04-19.07Q111.04-24.32 108.42-27.07L108.42-27.07L108.42-27.07Q105.79-29.82 100.93-29.82L100.93-29.82L100.93-29.82Q95.49-29.82 92.32-26.59L92.32-26.59L92.32-26.59Q89.15-23.36 89.15-17.66L89.15-17.66L89.15 0L84.61 0L84.61-33.66L88.96-33.66L88.96-27.46L88.96-27.46Q90.82-30.53 94.11-32.22L94.11-32.22L94.11-32.22Q97.41-33.92 101.76-33.92L101.76-33.92ZM141.89 0.32L141.89 0.32Q136.90 0.32 132.96-1.86L132.96-1.86L132.96-1.86Q129.02-4.03 126.78-7.97L126.78-7.97L126.78-7.97Q124.54-11.90 124.54-16.83L124.54-16.83L124.54-16.83Q124.54-21.76 126.78-25.66L126.78-25.66L126.78-25.66Q129.02-29.57 132.96-31.74L132.96-31.74L132.96-31.74Q136.90-33.92 141.89-33.92L141.89-33.92L141.89-33.92Q146.24-33.92 149.66-32.22L149.66-32.22L149.66-32.22Q153.09-30.53 155.07-27.26L155.07-27.26L151.68-24.96L151.68-24.96Q150.02-27.46 147.46-28.70L147.46-28.70L147.46-28.70Q144.90-29.95 141.89-29.95L141.89-29.95L141.89-29.95Q138.24-29.95 135.33-28.32L135.33-28.32L135.33-28.32Q132.42-26.69 130.78-23.68L130.78-23.68L130.78-23.68Q129.15-20.67 129.15-16.83L129.15-16.83L129.15-16.83Q129.15-12.93 130.78-9.95L130.78-9.95L130.78-9.95Q132.42-6.98 135.33-5.34L135.33-5.34L135.33-5.34Q138.24-3.71 141.89-3.71L141.89-3.71L141.89-3.71Q144.90-3.71 147.46-4.93L147.46-4.93L147.46-4.93Q150.02-6.14 151.68-8.64L151.68-8.64L155.07-6.34L155.07-6.34Q153.09-3.07 149.63-1.38L149.63-1.38L149.63-1.38Q146.18 0.32 141.89 0.32L141.89 0.32ZM187.78-33.66L192.26-33.66L175.42 4.03L175.42 4.03Q173.38 8.77 170.69 10.75L170.69 10.75L170.69 10.75Q168 12.74 164.22 12.74L164.22 12.74L164.22 12.74Q161.79 12.74 159.68 11.97L159.68 11.97L159.68 11.97Q157.57 11.20 156.03 9.66L156.03 9.66L158.14 6.27L158.14 6.27Q160.70 8.83 164.29 8.83L164.29 8.83L164.29 8.83Q166.59 8.83 168.22 7.55L168.22 7.55L168.22 7.55Q169.86 6.27 171.26 3.20L171.26 3.20L172.74-0.06L157.70-33.66L162.43-33.66L175.10-5.06L187.78-33.66ZM224.45 0.32L224.45 0.32Q220.35 0.32 216.61-0.86L216.61-0.86L216.61-0.86Q212.86-2.05 210.75-3.84L210.75-3.84L212.80-7.42L212.80-7.42Q214.91-5.76 218.11-4.70L218.11-4.70L218.11-4.70Q221.31-3.65 224.77-3.65L224.77-3.65L224.77-3.65Q229.38-3.65 231.58-5.09L231.58-5.09L231.58-5.09Q233.79-6.53 233.79-9.15L233.79-9.15L233.79-9.15Q233.79-11.01 232.58-12.06L232.58-12.06L232.58-12.06Q231.36-13.12 229.50-13.66L229.50-13.66L229.50-13.66Q227.65-14.21 224.58-14.72L224.58-14.72L224.58-14.72Q220.48-15.49 217.98-16.29L217.98-16.29L217.98-16.29Q215.49-17.09 213.73-19.01L213.73-19.01L213.73-19.01Q211.97-20.93 211.97-24.32L211.97-24.32L211.97-24.32Q211.97-28.54 215.49-31.23L215.49-31.23L215.49-31.23Q219.01-33.92 225.28-33.92L225.28-33.92L225.28-33.92Q228.54-33.92 231.81-33.06L231.81-33.06L231.81-33.06Q235.07-32.19 237.18-30.78L237.18-30.78L235.20-27.14L235.20-27.14Q231.04-30.02 225.28-30.02L225.28-30.02L225.28-30.02Q220.93-30.02 218.72-28.48L218.72-28.48L218.72-28.48Q216.51-26.94 216.51-24.45L216.51-24.45L216.51-24.45Q216.51-22.53 217.76-21.38L217.76-21.38L217.76-21.38Q219.01-20.22 220.86-19.68L220.86-19.68L220.86-19.68Q222.72-19.14 225.98-18.56L225.98-18.56L225.98-18.56Q230.02-17.79 232.45-17.02L232.45-17.02L232.45-17.02Q234.88-16.26 236.61-14.40L236.61-14.40L236.61-14.40Q238.34-12.54 238.34-9.28L238.34-9.28L238.34-9.28Q238.34-4.86 234.66-2.27L234.66-2.27L234.66-2.27Q230.98 0.32 224.45 0.32L224.45 0.32ZM260.48 0.32L260.48 0.32Q255.62 0.32 251.71-1.89L251.71-1.89L251.71-1.89Q247.81-4.10 245.57-8L245.57-8L245.57-8Q243.33-11.90 243.33-16.83L243.33-16.83L243.33-16.83Q243.33-21.76 245.57-25.66L245.57-25.66L245.57-25.66Q247.81-29.57 251.71-31.74L251.71-31.74L251.71-31.74Q255.62-33.92 260.48-33.92L260.48-33.92L260.48-33.92Q265.34-33.92 269.25-31.74L269.25-31.74L269.25-31.74Q273.15-29.57 275.36-25.66L275.36-25.66L275.36-25.66Q277.57-21.76 277.57-16.83L277.57-16.83L277.57-16.83Q277.57-11.90 275.36-8L275.36-8L275.36-8Q273.15-4.10 269.25-1.89L269.25-1.89L269.25-1.89Q265.34 0.32 260.48 0.32L260.48 0.32ZM260.48-3.71L260.48-3.71Q264.06-3.71 266.91-5.34L266.91-5.34L266.91-5.34Q269.76-6.98 271.36-9.98L271.36-9.98L271.36-9.98Q272.96-12.99 272.96-16.83L272.96-16.83L272.96-16.83Q272.96-20.67 271.36-23.68L271.36-23.68L271.36-23.68Q269.76-26.69 266.91-28.32L266.91-28.32L266.91-28.32Q264.06-29.95 260.48-29.95L260.48-29.95L260.48-29.95Q256.90-29.95 254.05-28.32L254.05-28.32L254.05-28.32Q251.20-26.69 249.57-23.68L249.57-23.68L249.57-23.68Q247.94-20.67 247.94-16.83L247.94-16.83L247.94-16.83Q247.94-12.99 249.57-9.98L249.57-9.98L249.57-9.98Q251.20-6.98 254.05-5.34L254.05-5.34L254.05-5.34Q256.90-3.71 260.48-3.71L260.48-3.71ZM328.83-33.92L328.83-33.92Q335.17-33.92 338.78-30.27L338.78-30.27L338.78-30.27Q342.40-26.62 342.40-19.52L342.40-19.52L342.40 0L337.86 0L337.86-19.07L337.86-19.07Q337.86-24.32 335.33-27.07L335.33-27.07L335.33-27.07Q332.80-29.82 328.19-29.82L328.19-29.82L328.19-29.82Q322.94-29.82 319.94-26.59L319.94-26.59L319.94-26.59Q316.93-23.36 316.93-17.66L316.93-17.66L316.93 0L312.38 0L312.38-19.07L312.38-19.07Q312.38-24.32 309.86-27.07L309.86-27.07L309.86-27.07Q307.33-29.82 302.66-29.82L302.66-29.82L302.66-29.82Q297.47-29.82 294.43-26.59L294.43-26.59L294.43-26.59Q291.39-23.36 291.39-17.66L291.39-17.66L291.39 0L286.85 0L286.85-33.66L291.20-33.66L291.20-27.52L291.20-27.52Q292.99-30.59 296.19-32.26L296.19-32.26L296.19-32.26Q299.39-33.92 303.55-33.92L303.55-33.92L303.55-33.92Q307.78-33.92 310.88-32.13L310.88-32.13L310.88-32.13Q313.98-30.34 315.52-26.82L315.52-26.82L315.52-26.82Q317.38-30.14 320.86-32.03L320.86-32.03L320.86-32.03Q324.35-33.92 328.83-33.92L328.83-33.92ZM384.13-16.83L384.06-15.42L355.90-15.42L355.90-15.42Q356.29-10.18 359.94-6.94L359.94-6.94L359.94-6.94Q363.58-3.71 369.15-3.71L369.15-3.71L369.15-3.71Q372.29-3.71 374.91-4.83L374.91-4.83L374.91-4.83Q377.54-5.95 379.46-8.13L379.46-8.13L382.02-5.18L382.02-5.18Q379.78-2.50 376.42-1.09L376.42-1.09L376.42-1.09Q373.06 0.32 369.02 0.32L369.02 0.32L369.02 0.32Q363.84 0.32 359.84-1.89L359.84-1.89L359.84-1.89Q355.84-4.10 353.60-8L353.60-8L353.60-8Q351.36-11.90 351.36-16.83L351.36-16.83L351.36-16.83Q351.36-21.76 353.50-25.66L353.50-25.66L353.50-25.66Q355.65-29.57 359.39-31.74L359.39-31.74L359.39-31.74Q363.14-33.92 367.81-33.92L367.81-33.92L367.81-33.92Q372.48-33.92 376.19-31.74L376.19-31.74L376.19-31.74Q379.90-29.57 382.02-25.70L382.02-25.70L382.02-25.70Q384.13-21.82 384.13-16.83L384.13-16.83ZM367.81-30.02L367.81-30.02Q362.94-30.02 359.65-26.91L359.65-26.91L359.65-26.91Q356.35-23.81 355.90-18.82L355.90-18.82L379.78-18.82L379.78-18.82Q379.33-23.81 376.03-26.91L376.03-26.91L376.03-26.91Q372.74-30.02 367.81-30.02L367.81-30.02ZM436.99-33.66L441.34-33.66L441.34-4.10L441.34-4.10Q441.34 4.48 437.15 8.61L437.15 8.61L437.15 8.61Q432.96 12.74 424.51 12.74L424.51 12.74L424.51 12.74Q419.84 12.74 415.65 11.36L415.65 11.36L415.65 11.36Q411.46 9.98 408.83 7.55L408.83 7.55L411.14 4.10L411.14 4.10Q413.57 6.27 417.06 7.49L417.06 7.49L417.06 7.49Q420.54 8.70 424.38 8.70L424.38 8.70L424.38 8.70Q430.78 8.70 433.79 5.73L433.79 5.73L433.79 5.73Q436.80 2.75 436.80-3.52L436.80-3.52L436.80-7.81L436.80-7.81Q434.69-4.61 431.26-2.94L431.26-2.94L431.26-2.94Q427.84-1.28 423.68-1.28L423.68-1.28L423.68-1.28Q418.94-1.28 415.07-3.36L415.07-3.36L415.07-3.36Q411.20-5.44 408.99-9.18L408.99-9.18L408.99-9.18Q406.78-12.93 406.78-17.66L406.78-17.66L406.78-17.66Q406.78-22.40 408.99-26.11L408.99-26.11L408.99-26.11Q411.20-29.82 415.04-31.87L415.04-31.87L415.04-31.87Q418.88-33.92 423.68-33.92L423.68-33.92L423.68-33.92Q427.97-33.92 431.42-32.19L431.42-32.19L431.42-32.19Q434.88-30.46 436.99-27.20L436.99-27.20L436.99-33.66ZM424.13-5.31L424.13-5.31Q427.78-5.31 430.72-6.88L430.72-6.88L430.72-6.88Q433.66-8.45 435.30-11.26L435.30-11.26L435.30-11.26Q436.93-14.08 436.93-17.66L436.93-17.66L436.93-17.66Q436.93-21.25 435.30-24.03L435.30-24.03L435.30-24.03Q433.66-26.82 430.75-28.38L430.75-28.38L430.75-28.38Q427.84-29.95 424.13-29.95L424.13-29.95L424.13-29.95Q420.48-29.95 417.57-28.42L417.57-28.42L417.57-28.42Q414.66-26.88 413.02-24.06L413.02-24.06L413.02-24.06Q411.39-21.25 411.39-17.66L411.39-17.66L411.39-17.66Q411.39-14.08 413.02-11.26L413.02-11.26L413.02-11.26Q414.66-8.45 417.57-6.88L417.57-6.88L417.57-6.88Q420.48-5.31 424.13-5.31L424.13-5.31ZM479.87-33.66L484.42-33.66L484.42 0L480.06 0L480.06-6.14L480.06-6.14Q478.27-3.07 475.14-1.38L475.14-1.38L475.14-1.38Q472 0.32 467.97 0.32L467.97 0.32L467.97 0.32Q461.38 0.32 457.57-3.36L457.57-3.36L457.57-3.36Q453.76-7.04 453.76-14.14L453.76-14.14L453.76-33.66L458.30-33.66L458.30-14.59L458.30-14.59Q458.30-9.28 460.93-6.53L460.93-6.53L460.93-6.53Q463.55-3.78 468.42-3.78L468.42-3.78L468.42-3.78Q473.73-3.78 476.80-7.01L476.80-7.01L476.80-7.01Q479.87-10.24 479.87-16L479.87-16L479.87-33.66ZM526.53-16.83L526.46-15.42L498.30-15.42L498.30-15.42Q498.69-10.18 502.34-6.94L502.34-6.94L502.34-6.94Q505.98-3.71 511.55-3.71L511.55-3.71L511.55-3.71Q514.69-3.71 517.31-4.83L517.31-4.83L517.31-4.83Q519.94-5.95 521.86-8.13L521.86-8.13L524.42-5.18L524.42-5.18Q522.18-2.50 518.82-1.09L518.82-1.09L518.82-1.09Q515.46 0.32 511.42 0.32L511.42 0.32L511.42 0.32Q506.24 0.32 502.24-1.89L502.24-1.89L502.24-1.89Q498.24-4.10 496.00-8L496.00-8L496.00-8Q493.76-11.90 493.76-16.83L493.76-16.83L493.76-16.83Q493.76-21.76 495.90-25.66L495.90-25.66L495.90-25.66Q498.05-29.57 501.79-31.74L501.79-31.74L501.79-31.74Q505.54-33.92 510.21-33.92L510.21-33.92L510.21-33.92Q514.88-33.92 518.59-31.74L518.59-31.74L518.59-31.74Q522.30-29.57 524.42-25.70L524.42-25.70L524.42-25.70Q526.53-21.82 526.53-16.83L526.53-16.83ZM510.21-30.02L510.21-30.02Q505.34-30.02 502.05-26.91L502.05-26.91L502.05-26.91Q498.75-23.81 498.30-18.82L498.30-18.82L522.18-18.82L522.18-18.82Q521.73-23.81 518.43-26.91L518.43-26.91L518.43-26.91Q515.14-30.02 510.21-30.02L510.21-30.02ZM544.83 0.32L544.83 0.32Q540.74 0.32 536.99-0.86L536.99-0.86L536.99-0.86Q533.25-2.05 531.14-3.84L531.14-3.84L533.18-7.42L533.18-7.42Q535.30-5.76 538.50-4.70L538.50-4.70L538.50-4.70Q541.70-3.65 545.15-3.65L545.15-3.65L545.15-3.65Q549.76-3.65 551.97-5.09L551.97-5.09L551.97-5.09Q554.18-6.53 554.18-9.15L554.18-9.15L554.18-9.15Q554.18-11.01 552.96-12.06L552.96-12.06L552.96-12.06Q551.74-13.12 549.89-13.66L549.89-13.66L549.89-13.66Q548.03-14.21 544.96-14.72L544.96-14.72L544.96-14.72Q540.86-15.49 538.37-16.29L538.37-16.29L538.37-16.29Q535.87-17.09 534.11-19.01L534.11-19.01L534.11-19.01Q532.35-20.93 532.35-24.32L532.35-24.32L532.35-24.32Q532.35-28.54 535.87-31.23L535.87-31.23L535.87-31.23Q539.39-33.92 545.66-33.92L545.66-33.92L545.66-33.92Q548.93-33.92 552.19-33.06L552.19-33.06L552.19-33.06Q555.46-32.19 557.57-30.78L557.57-30.78L555.58-27.14L555.58-27.14Q551.42-30.02 545.66-30.02L545.66-30.02L545.66-30.02Q541.31-30.02 539.10-28.48L539.10-28.48L539.10-28.48Q536.90-26.94 536.90-24.45L536.90-24.45L536.90-24.45Q536.90-22.53 538.14-21.38L538.14-21.38L538.14-21.38Q539.39-20.22 541.25-19.68L541.25-19.68L541.25-19.68Q543.10-19.14 546.37-18.56L546.37-18.56L546.37-18.56Q550.40-17.79 552.83-17.02L552.83-17.02L552.83-17.02Q555.26-16.26 556.99-14.40L556.99-14.40L556.99-14.40Q558.72-12.54 558.72-9.28L558.72-9.28L558.72-9.28Q558.72-4.86 555.04-2.27L555.04-2.27L555.04-2.27Q551.36 0.32 544.83 0.32L544.83 0.32ZM576.13 0.32L576.13 0.32Q572.03 0.32 568.29-0.86L568.29-0.86L568.29-0.86Q564.54-2.05 562.43-3.84L562.43-3.84L564.48-7.42L564.48-7.42Q566.59-5.76 569.79-4.70L569.79-4.70L569.79-4.70Q572.99-3.65 576.45-3.65L576.45-3.65L576.45-3.65Q581.06-3.65 583.26-5.09L583.26-5.09L583.26-5.09Q585.47-6.53 585.47-9.15L585.47-9.15L585.47-9.15Q585.47-11.01 584.26-12.06L584.26-12.06L584.26-12.06Q583.04-13.12 581.18-13.66L581.18-13.66L581.18-13.66Q579.33-14.21 576.26-14.72L576.26-14.72L576.26-14.72Q572.16-15.49 569.66-16.29L569.66-16.29L569.66-16.29Q567.17-17.09 565.41-19.01L565.41-19.01L565.41-19.01Q563.65-20.93 563.65-24.32L563.65-24.32L563.65-24.32Q563.65-28.54 567.17-31.23L567.17-31.23L567.17-31.23Q570.69-33.92 576.96-33.92L576.96-33.92L576.96-33.92Q580.22-33.92 583.49-33.06L583.49-33.06L583.49-33.06Q586.75-32.19 588.86-30.78L588.86-30.78L586.88-27.14L586.88-27.14Q582.72-30.02 576.96-30.02L576.96-30.02L576.96-30.02Q572.61-30.02 570.40-28.48L570.40-28.48L570.40-28.48Q568.19-26.94 568.19-24.45L568.19-24.45L568.19-24.45Q568.19-22.53 569.44-21.38L569.44-21.38L569.44-21.38Q570.69-20.22 572.54-19.68L572.54-19.68L572.54-19.68Q574.40-19.14 577.66-18.56L577.66-18.56L577.66-18.56Q581.70-17.79 584.13-17.02L584.13-17.02L584.13-17.02Q586.56-16.26 588.29-14.40L588.29-14.40L588.29-14.40Q590.02-12.54 590.02-9.28L590.02-9.28L590.02-9.28Q590.02-4.86 586.34-2.27L586.34-2.27L586.34-2.27Q582.66 0.32 576.13 0.32L576.13 0.32ZM598.40 0L598.40-33.66L602.94-33.66L602.94 0L598.40 0ZM600.70-41.02L600.70-41.02Q599.30-41.02 598.34-41.98L598.34-41.98L598.34-41.98Q597.38-42.94 597.38-44.29L597.38-44.29L597.38-44.29Q597.38-45.57 598.34-46.53L598.34-46.53L598.34-46.53Q599.30-47.49 600.70-47.49L600.70-47.49L600.70-47.49Q602.11-47.49 603.07-46.56L603.07-46.56L603.07-46.56Q604.03-45.63 604.03-44.35L604.03-44.35L604.03-44.35Q604.03-42.94 603.07-41.98L603.07-41.98L603.07-41.98Q602.11-41.02 600.70-41.02L600.70-41.02ZM632.77-33.92L632.77-33.92Q639.10-33.92 642.85-30.24L642.85-30.24L642.85-30.24Q646.59-26.56 646.59-19.52L646.59-19.52L646.59 0L642.05 0L642.05-19.07L642.05-19.07Q642.05-24.32 639.42-27.07L639.42-27.07L639.42-27.07Q636.80-29.82 631.94-29.82L631.94-29.82L631.94-29.82Q626.50-29.82 623.33-26.59L623.33-26.59L623.33-26.59Q620.16-23.36 620.16-17.66L620.16-17.66L620.16 0L615.62 0L615.62-33.66L619.97-33.66L619.97-27.46L619.97-27.46Q621.82-30.53 625.12-32.22L625.12-32.22L625.12-32.22Q628.42-33.92 632.77-33.92L632.77-33.92ZM685.76-33.66L690.11-33.66L690.11-4.10L690.11-4.10Q690.11 4.48 685.92 8.61L685.92 8.61L685.92 8.61Q681.73 12.74 673.28 12.74L673.28 12.74L673.28 12.74Q668.61 12.74 664.42 11.36L664.42 11.36L664.42 11.36Q660.22 9.98 657.60 7.55L657.60 7.55L659.90 4.10L659.90 4.10Q662.34 6.27 665.82 7.49L665.82 7.49L665.82 7.49Q669.31 8.70 673.15 8.70L673.15 8.70L673.15 8.70Q679.55 8.70 682.56 5.73L682.56 5.73L682.56 5.73Q685.57 2.75 685.57-3.52L685.57-3.52L685.57-7.81L685.57-7.81Q683.46-4.61 680.03-2.94L680.03-2.94L680.03-2.94Q676.61-1.28 672.45-1.28L672.45-1.28L672.45-1.28Q667.71-1.28 663.84-3.36L663.84-3.36L663.84-3.36Q659.97-5.44 657.76-9.18L657.76-9.18L657.76-9.18Q655.55-12.93 655.55-17.66L655.55-17.66L655.55-17.66Q655.55-22.40 657.76-26.11L657.76-26.11L657.76-26.11Q659.97-29.82 663.81-31.87L663.81-31.87L663.81-31.87Q667.65-33.92 672.45-33.92L672.45-33.92L672.45-33.92Q676.74-33.92 680.19-32.19L680.19-32.19L680.19-32.19Q683.65-30.46 685.76-27.20L685.76-27.20L685.76-33.66ZM672.90-5.31L672.90-5.31Q676.54-5.31 679.49-6.88L679.49-6.88L679.49-6.88Q682.43-8.45 684.06-11.26L684.06-11.26L684.06-11.26Q685.70-14.08 685.70-17.66L685.70-17.66L685.70-17.66Q685.70-21.25 684.06-24.03L684.06-24.03L684.06-24.03Q682.43-26.82 679.52-28.38L679.52-28.38L679.52-28.38Q676.61-29.95 672.90-29.95L672.90-29.95L672.90-29.95Q669.25-29.95 666.34-28.42L666.34-28.42L666.34-28.42Q663.42-26.88 661.79-24.06L661.79-24.06L661.79-24.06Q660.16-21.25 660.16-17.66L660.16-17.66L660.16-17.66Q660.16-14.08 661.79-11.26L661.79-11.26L661.79-11.26Q663.42-8.45 666.34-6.88L666.34-6.88L666.34-6.88Q669.25-5.31 672.90-5.31L672.90-5.31ZM711.55-13.44L711.55-13.44Q711.55-16.06 712.42-18.05L712.42-18.05L712.42-18.05Q713.28-20.03 714.56-21.44L714.56-21.44L714.56-21.44Q715.84-22.85 717.89-24.64L717.89-24.64L717.89-24.64Q720.64-27.07 721.95-28.90L721.95-28.90L721.95-28.90Q723.26-30.72 723.26-33.34L723.26-33.34L723.26-33.34Q723.26-36.86 720.51-39.01L720.51-39.01L720.51-39.01Q717.76-41.15 712.96-41.15L712.96-41.15L712.96-41.15Q705.02-41.15 700.74-35.97L700.74-35.97L697.34-38.53L697.34-38.53Q702.78-45.18 713.28-45.18L713.28-45.18L713.28-45.18Q720-45.18 724-42.18L724-42.18L724-42.18Q728-39.17 728-34.05L728-34.05L728-34.05Q728-31.42 727.14-29.41L727.14-29.41L727.14-29.41Q726.27-27.39 725.02-25.98L725.02-25.98L725.02-25.98Q723.78-24.58 721.73-22.72L721.73-22.72L721.73-22.72Q718.98-20.22 717.63-18.27L717.63-18.27L717.63-18.27Q716.29-16.32 716.29-13.44L716.29-13.44L711.55-13.44ZM713.92 0.32L713.92 0.32Q712.51 0.32 711.55-0.67L711.55-0.67L711.55-0.67Q710.59-1.66 710.59-3.01L710.59-3.01L710.59-3.01Q710.59-4.42 711.55-5.34L711.55-5.34L711.55-5.34Q712.51-6.27 713.92-6.27L713.92-6.27L713.92-6.27Q715.39-6.27 716.35-5.34L716.35-5.34L716.35-5.34Q717.31-4.42 717.31-3.01L717.31-3.01L717.31-3.01Q717.31-1.66 716.32-0.67L716.32-0.67L716.32-0.67Q715.33 0.32 713.92 0.32L713.92 0.32Z" fill="#ccc"></path></g></g><style>text {
  font-size: 64px;
  font-family: Arial Black;
  dominant-baseline: central;
  text-anchor: middle;
}</style></svg>