<svg width="1755.66875px" height="153.2px" xmlns="http://www.w3.org/2000/svg" viewBox="-627.834375 -1.5999999999999943 1755.66875 153.2" style="background: rgba(0, 0, 0, 0);" preserveAspectRatio="xMidYMid"><defs><filter id="editing-hole" x="-100%" y="-100%" width="300%" height="300%"><feFlood flood-color="#000" result="black"></feFlood><feMorphology operator="dilate" radius="2" in="SourceGraphic" result="erode"></feMorphology><feGaussianBlur in="erode" stdDeviation="4" result="blur"></feGaussianBlur><feOffset in="blur" dx="2" dy="2" result="offset"></feOffset><feComposite operator="atop" in="offset" in2="black" result="merge"></feComposite><feComposite operator="in" in="merge" in2="SourceGraphic" result="inner-shadow"></feComposite></filter></defs><g filter="url(#editing-hole)"><g transform="translate(-391.3200159072876, 104.92000007629395)"><path d="M80.32-56L86-56L67.12 0L60.88 0L44.48-47.76L28 0L21.84 0L2.96-56L9.04-56L25.20-7.84L41.92-56L47.44-56L63.92-7.60L80.32-56ZM133.52-21.04L133.44-19.28L98.24-19.28L98.24-19.28Q98.72-12.72 103.28-8.68L103.28-8.68L103.28-8.68Q107.84-4.64 114.80-4.64L114.80-4.64L114.80-4.64Q118.72-4.64 122-6.04L122-6.04L122-6.04Q125.28-7.44 127.68-10.16L127.68-10.16L130.88-6.48L130.88-6.48Q128.08-3.12 123.88-1.36L123.88-1.36L123.88-1.36Q119.68 0.40 114.64 0.40L114.64 0.40L114.64 0.40Q108.16 0.40 103.16-2.36L103.16-2.36L103.16-2.36Q98.16-5.12 95.36-10L95.36-10L95.36-10Q92.56-14.88 92.56-21.04L92.56-21.04L92.56-21.04Q92.56-27.20 95.24-32.08L95.24-32.08L95.24-32.08Q97.92-36.96 102.60-39.68L102.60-39.68L102.60-39.68Q107.28-42.40 113.12-42.40L113.12-42.40L113.12-42.40Q118.96-42.40 123.60-39.68L123.60-39.68L123.60-39.68Q128.24-36.96 130.88-32.12L130.88-32.12L130.88-32.12Q133.52-27.28 133.52-21.04L133.52-21.04ZM113.12-37.52L113.12-37.52Q107.04-37.52 102.92-33.64L102.92-33.64L102.92-33.64Q98.80-29.76 98.24-23.52L98.24-23.52L128.08-23.52L128.08-23.52Q127.52-29.76 123.40-33.64L123.40-33.64L123.40-33.64Q119.28-37.52 113.12-37.52L113.12-37.52ZM145.12 0L145.12-59.36L150.80-59.36L150.80 0L145.12 0ZM184.08 0.40L184.08 0.40Q177.84 0.40 172.92-2.32L172.92-2.32L172.92-2.32Q168-5.04 165.20-9.96L165.20-9.96L165.20-9.96Q162.40-14.88 162.40-21.04L162.40-21.04L162.40-21.04Q162.40-27.20 165.20-32.08L165.20-32.08L165.20-32.08Q168-36.96 172.92-39.68L172.92-39.68L172.92-39.68Q177.84-42.40 184.08-42.40L184.08-42.40L184.08-42.40Q189.52-42.40 193.80-40.28L193.80-40.28L193.80-40.28Q198.08-38.16 200.56-34.08L200.56-34.08L196.32-31.20L196.32-31.20Q194.24-34.32 191.04-35.88L191.04-35.88L191.04-35.88Q187.84-37.44 184.08-37.44L184.08-37.44L184.08-37.44Q179.52-37.44 175.88-35.40L175.88-35.40L175.88-35.40Q172.24-33.36 170.20-29.60L170.20-29.60L170.20-29.60Q168.16-25.84 168.16-21.04L168.16-21.04L168.16-21.04Q168.16-16.16 170.20-12.44L170.20-12.44L170.20-12.44Q172.24-8.72 175.88-6.68L175.88-6.68L175.88-6.68Q179.52-4.64 184.08-4.64L184.08-4.64L184.08-4.64Q187.84-4.64 191.04-6.16L191.04-6.16L191.04-6.16Q194.24-7.68 196.32-10.80L196.32-10.80L200.56-7.92L200.56-7.92Q198.08-3.84 193.76-1.72L193.76-1.72L193.76-1.72Q189.44 0.40 184.08 0.40L184.08 0.40ZM228.88 0.40L228.88 0.40Q222.80 0.40 217.92-2.36L217.92-2.36L217.92-2.36Q213.04-5.12 210.24-10L210.24-10L210.24-10Q207.44-14.88 207.44-21.04L207.44-21.04L207.44-21.04Q207.44-27.20 210.24-32.08L210.24-32.08L210.24-32.08Q213.04-36.96 217.92-39.68L217.92-39.68L217.92-39.68Q222.80-42.40 228.88-42.40L228.88-42.40L228.88-42.40Q234.96-42.40 239.84-39.68L239.84-39.68L239.84-39.68Q244.72-36.96 247.48-32.08L247.48-32.08L247.48-32.08Q250.24-27.20 250.24-21.04L250.24-21.04L250.24-21.04Q250.24-14.88 247.48-10L247.48-10L247.48-10Q244.72-5.12 239.84-2.36L239.84-2.36L239.84-2.36Q234.96 0.40 228.88 0.40L228.88 0.40ZM228.88-4.64L228.88-4.64Q233.36-4.64 236.92-6.68L236.92-6.68L236.92-6.68Q240.48-8.72 242.48-12.48L242.48-12.48L242.48-12.48Q244.48-16.24 244.48-21.04L244.48-21.04L244.48-21.04Q244.48-25.84 242.48-29.60L242.48-29.60L242.48-29.60Q240.48-33.36 236.92-35.40L236.92-35.40L236.92-35.40Q233.36-37.44 228.88-37.44L228.88-37.44L228.88-37.44Q224.40-37.44 220.84-35.40L220.84-35.40L220.84-35.40Q217.28-33.36 215.24-29.60L215.24-29.60L215.24-29.60Q213.20-25.84 213.20-21.04L213.20-21.04L213.20-21.04Q213.20-16.24 215.24-12.48L215.24-12.48L215.24-12.48Q217.28-8.72 220.84-6.68L220.84-6.68L220.84-6.68Q224.40-4.64 228.88-4.64L228.88-4.64ZM314.32-42.40L314.32-42.40Q322.24-42.40 326.76-37.84L326.76-37.84L326.76-37.84Q331.28-33.28 331.28-24.40L331.28-24.40L331.28 0L325.60 0L325.60-23.84L325.60-23.84Q325.60-30.40 322.44-33.84L322.44-33.84L322.44-33.84Q319.28-37.28 313.52-37.28L313.52-37.28L313.52-37.28Q306.96-37.28 303.20-33.24L303.20-33.24L303.20-33.24Q299.44-29.20 299.44-22.08L299.44-22.08L299.44 0L293.76 0L293.76-23.84L293.76-23.84Q293.76-30.40 290.60-33.84L290.60-33.84L290.60-33.84Q287.44-37.28 281.60-37.28L281.60-37.28L281.60-37.28Q275.12-37.28 271.32-33.24L271.32-33.24L271.32-33.24Q267.52-29.20 267.52-22.08L267.52-22.08L267.52 0L261.84 0L261.84-42.08L267.28-42.08L267.28-34.40L267.28-34.40Q269.52-38.24 273.52-40.32L273.52-40.32L273.52-40.32Q277.52-42.40 282.72-42.40L282.72-42.40L282.72-42.40Q288-42.40 291.88-40.16L291.88-40.16L291.88-40.16Q295.76-37.92 297.68-33.52L297.68-33.52L297.68-33.52Q300-37.68 304.36-40.04L304.36-40.04L304.36-40.04Q308.72-42.40 314.32-42.40L314.32-42.40ZM383.44-21.04L383.36-19.28L348.16-19.28L348.16-19.28Q348.64-12.72 353.20-8.68L353.20-8.68L353.20-8.68Q357.76-4.64 364.72-4.64L364.72-4.64L364.72-4.64Q368.64-4.64 371.92-6.04L371.92-6.04L371.92-6.04Q375.20-7.44 377.60-10.16L377.60-10.16L380.80-6.48L380.80-6.48Q378.00-3.12 373.80-1.36L373.80-1.36L373.80-1.36Q369.60 0.40 364.56 0.40L364.56 0.40L364.56 0.40Q358.08 0.40 353.08-2.36L353.08-2.36L353.08-2.36Q348.08-5.12 345.28-10L345.28-10L345.28-10Q342.48-14.88 342.48-21.04L342.48-21.04L342.48-21.04Q342.48-27.20 345.16-32.08L345.16-32.08L345.16-32.08Q347.84-36.96 352.52-39.68L352.52-39.68L352.52-39.68Q357.20-42.40 363.04-42.40L363.04-42.40L363.04-42.40Q368.88-42.40 373.52-39.68L373.52-39.68L373.52-39.68Q378.16-36.96 380.80-32.12L380.80-32.12L380.80-32.12Q383.44-27.28 383.44-21.04L383.44-21.04ZM363.04-37.52L363.04-37.52Q356.96-37.52 352.84-33.64L352.84-33.64L352.84-33.64Q348.72-29.76 348.16-23.52L348.16-23.52L378.00-23.52L378.00-23.52Q377.44-29.76 373.32-33.64L373.32-33.64L373.32-33.64Q369.20-37.52 363.04-37.52L363.04-37.52ZM436.16-6.64L438.16-2.56L438.16-2.56Q436.56-1.12 434.20-0.36L434.20-0.36L434.20-0.36Q431.84 0.40 429.28 0.40L429.28 0.40L429.28 0.40Q423.36 0.40 420.16-2.80L420.16-2.80L420.16-2.80Q416.96-6 416.96-11.84L416.96-11.84L416.96-37.28L409.44-37.28L409.44-42.08L416.96-42.08L416.96-51.28L422.64-51.28L422.64-42.08L435.44-42.08L435.44-37.28L422.64-37.28L422.64-12.16L422.64-12.16Q422.64-8.40 424.52-6.44L424.52-6.44L424.52-6.44Q426.40-4.48 429.92-4.48L429.92-4.48L429.92-4.48Q431.68-4.48 433.32-5.04L433.32-5.04L433.32-5.04Q434.96-5.60 436.16-6.64L436.16-6.64ZM465.68 0.40L465.68 0.40Q459.60 0.40 454.72-2.36L454.72-2.36L454.72-2.36Q449.84-5.12 447.04-10L447.04-10L447.04-10Q444.24-14.88 444.24-21.04L444.24-21.04L444.24-21.04Q444.24-27.20 447.04-32.08L447.04-32.08L447.04-32.08Q449.84-36.96 454.72-39.68L454.72-39.68L454.72-39.68Q459.60-42.40 465.68-42.40L465.68-42.40L465.68-42.40Q471.76-42.40 476.64-39.68L476.64-39.68L476.64-39.68Q481.52-36.96 484.28-32.08L484.28-32.08L484.28-32.08Q487.04-27.20 487.04-21.04L487.04-21.04L487.04-21.04Q487.04-14.88 484.28-10L484.28-10L484.28-10Q481.52-5.12 476.64-2.36L476.64-2.36L476.64-2.36Q471.76 0.40 465.68 0.40L465.68 0.40ZM465.68-4.64L465.68-4.64Q470.16-4.64 473.72-6.68L473.72-6.68L473.72-6.68Q477.28-8.72 479.28-12.48L479.28-12.48L479.28-12.48Q481.28-16.24 481.28-21.04L481.28-21.04L481.28-21.04Q481.28-25.84 479.28-29.60L479.28-29.60L479.28-29.60Q477.28-33.36 473.72-35.40L473.72-35.40L473.72-35.40Q470.16-37.44 465.68-37.44L465.68-37.44L465.68-37.44Q461.20-37.44 457.64-35.40L457.64-35.40L457.64-35.40Q454.08-33.36 452.04-29.60L452.04-29.60L452.04-29.60Q450.00-25.84 450.00-21.04L450.00-21.04L450.00-21.04Q450.00-16.24 452.04-12.48L452.04-12.48L452.04-12.48Q454.08-8.72 457.64-6.68L457.64-6.68L457.64-6.68Q461.20-4.64 465.68-4.64L465.68-4.64ZM560.24-9.12L560.24-28L565.92-28L565.92-6.64L565.92-6.64Q562-3.20 556.64-1.36L556.64-1.36L556.64-1.36Q551.28 0.48 545.36 0.48L545.36 0.48L545.36 0.48Q536.96 0.48 530.24-3.20L530.24-3.20L530.24-3.20Q523.52-6.88 519.68-13.40L519.68-13.40L519.68-13.40Q515.84-19.92 515.84-28L515.84-28L515.84-28Q515.84-36.08 519.68-42.60L519.68-42.60L519.68-42.60Q523.52-49.12 530.24-52.80L530.24-52.80L530.24-52.80Q536.96-56.48 545.44-56.48L545.44-56.48L545.44-56.48Q551.84-56.48 557.20-54.44L557.20-54.44L557.20-54.44Q562.56-52.40 566.24-48.40L566.24-48.40L562.56-44.64L562.56-44.64Q555.92-51.20 545.68-51.20L545.68-51.20L545.68-51.20Q538.88-51.20 533.40-48.20L533.40-48.20L533.40-48.20Q527.92-45.20 524.80-39.88L524.80-39.88L524.80-39.88Q521.68-34.56 521.68-28L521.68-28L521.68-28Q521.68-21.44 524.80-16.16L524.80-16.16L524.80-16.16Q527.92-10.88 533.36-7.84L533.36-7.84L533.36-7.84Q538.80-4.80 545.60-4.80L545.60-4.80L545.60-4.80Q554.24-4.80 560.24-9.12L560.24-9.12ZM613.68-42.08L619.36-42.08L619.36 0L613.92 0L613.92-7.68L613.92-7.68Q611.68-3.84 607.76-1.72L607.76-1.72L607.76-1.72Q603.84 0.40 598.80 0.40L598.80 0.40L598.80 0.40Q590.56 0.40 585.80-4.20L585.80-4.20L585.80-4.20Q581.04-8.80 581.04-17.68L581.04-17.68L581.04-42.08L586.72-42.08L586.72-18.24L586.72-18.24Q586.72-11.60 590-8.16L590-8.16L590-8.16Q593.28-4.72 599.36-4.72L599.36-4.72L599.36-4.72Q606-4.72 609.84-8.76L609.84-8.76L609.84-8.76Q613.68-12.80 613.68-20L613.68-20L613.68-42.08ZM672-21.04L671.92-19.28L636.72-19.28L636.72-19.28Q637.20-12.72 641.76-8.68L641.76-8.68L641.76-8.68Q646.32-4.64 653.28-4.64L653.28-4.64L653.28-4.64Q657.20-4.64 660.48-6.04L660.48-6.04L660.48-6.04Q663.76-7.44 666.16-10.16L666.16-10.16L669.36-6.48L669.36-6.48Q666.56-3.12 662.36-1.36L662.36-1.36L662.36-1.36Q658.16 0.40 653.12 0.40L653.12 0.40L653.12 0.40Q646.64 0.40 641.64-2.36L641.64-2.36L641.64-2.36Q636.64-5.12 633.84-10L633.84-10L633.84-10Q631.04-14.88 631.04-21.04L631.04-21.04L631.04-21.04Q631.04-27.20 633.72-32.08L633.72-32.08L633.72-32.08Q636.40-36.96 641.08-39.68L641.08-39.68L641.08-39.68Q645.76-42.40 651.60-42.40L651.60-42.40L651.60-42.40Q657.44-42.40 662.08-39.68L662.08-39.68L662.08-39.68Q666.72-36.96 669.36-32.12L669.36-32.12L669.36-32.12Q672-27.28 672-21.04L672-21.04ZM651.60-37.52L651.60-37.52Q645.52-37.52 641.40-33.64L641.40-33.64L641.40-33.64Q637.28-29.76 636.72-23.52L636.72-23.52L666.56-23.52L666.56-23.52Q666-29.76 661.88-33.64L661.88-33.64L661.88-33.64Q657.76-37.52 651.60-37.52L651.60-37.52ZM694.88 0.40L694.88 0.40Q689.76 0.40 685.08-1.08L685.08-1.08L685.08-1.08Q680.40-2.56 677.76-4.80L677.76-4.80L680.32-9.28L680.32-9.28Q682.96-7.20 686.96-5.88L686.96-5.88L686.96-5.88Q690.96-4.56 695.28-4.56L695.28-4.56L695.28-4.56Q701.04-4.56 703.80-6.36L703.80-6.36L703.80-6.36Q706.56-8.16 706.56-11.44L706.56-11.44L706.56-11.44Q706.56-13.76 705.04-15.08L705.04-15.08L705.04-15.08Q703.52-16.40 701.20-17.08L701.20-17.08L701.20-17.08Q698.88-17.76 695.04-18.40L695.04-18.40L695.04-18.40Q689.92-19.36 686.80-20.36L686.80-20.36L686.80-20.36Q683.68-21.36 681.48-23.76L681.48-23.76L681.48-23.76Q679.28-26.16 679.28-30.40L679.28-30.40L679.28-30.40Q679.28-35.68 683.68-39.04L683.68-39.04L683.68-39.04Q688.08-42.40 695.92-42.40L695.92-42.40L695.92-42.40Q700.00-42.40 704.08-41.32L704.08-41.32L704.08-41.32Q708.16-40.24 710.80-38.48L710.80-38.48L708.32-33.92L708.32-33.92Q703.12-37.52 695.92-37.52L695.92-37.52L695.92-37.52Q690.48-37.52 687.72-35.60L687.72-35.60L687.72-35.60Q684.96-33.68 684.96-30.56L684.96-30.56L684.96-30.56Q684.96-28.16 686.52-26.72L686.52-26.72L686.52-26.72Q688.08-25.28 690.40-24.60L690.40-24.60L690.40-24.60Q692.72-23.92 696.80-23.20L696.80-23.20L696.80-23.20Q701.84-22.24 704.88-21.28L704.88-21.28L704.88-21.28Q707.92-20.32 710.08-18L710.08-18L710.08-18Q712.24-15.68 712.24-11.60L712.24-11.60L712.24-11.60Q712.24-6.08 707.64-2.84L707.64-2.84L707.64-2.84Q703.04 0.40 694.88 0.40L694.88 0.40ZM734.00 0.40L734.00 0.40Q728.88 0.40 724.20-1.08L724.20-1.08L724.20-1.08Q719.52-2.56 716.88-4.80L716.88-4.80L719.44-9.28L719.44-9.28Q722.08-7.20 726.08-5.88L726.08-5.88L726.08-5.88Q730.08-4.56 734.40-4.56L734.40-4.56L734.40-4.56Q740.16-4.56 742.92-6.36L742.92-6.36L742.92-6.36Q745.68-8.16 745.68-11.44L745.68-11.44L745.68-11.44Q745.68-13.76 744.16-15.08L744.16-15.08L744.16-15.08Q742.64-16.40 740.32-17.08L740.32-17.08L740.32-17.08Q738.00-17.76 734.16-18.40L734.16-18.40L734.16-18.40Q729.04-19.36 725.92-20.36L725.92-20.36L725.92-20.36Q722.80-21.36 720.60-23.76L720.60-23.76L720.60-23.76Q718.40-26.16 718.40-30.40L718.40-30.40L718.40-30.40Q718.40-35.68 722.80-39.04L722.80-39.04L722.80-39.04Q727.20-42.40 735.04-42.40L735.04-42.40L735.04-42.40Q739.12-42.40 743.20-41.32L743.20-41.32L743.20-41.32Q747.28-40.24 749.92-38.48L749.92-38.48L747.44-33.92L747.44-33.92Q742.24-37.52 735.04-37.52L735.04-37.52L735.04-37.52Q729.60-37.52 726.84-35.60L726.84-35.60L726.84-35.60Q724.08-33.68 724.08-30.56L724.08-30.56L724.08-30.56Q724.08-28.16 725.64-26.72L725.64-26.72L725.64-26.72Q727.20-25.28 729.52-24.60L729.52-24.60L729.52-24.60Q731.84-23.92 735.92-23.20L735.92-23.20L735.92-23.20Q740.96-22.24 744.00-21.28L744.00-21.28L744.00-21.28Q747.04-20.32 749.20-18L749.20-18L749.20-18Q751.36-15.68 751.36-11.60L751.36-11.60L751.36-11.60Q751.36-6.08 746.76-2.84L746.76-2.84L746.76-2.84Q742.16 0.40 734.00 0.40L734.00 0.40ZM794.88 0L794.88-50.88L775.20-50.88L775.20-56L820.48-56L820.48-50.88L800.80-50.88L800.80 0L794.88 0ZM850.16-42.40L850.16-42.40Q858.08-42.40 862.76-37.80L862.76-37.80L862.76-37.80Q867.44-33.20 867.44-24.40L867.44-24.40L867.44 0L861.76 0L861.76-23.84L861.76-23.84Q861.76-30.40 858.48-33.84L858.48-33.84L858.48-33.84Q855.20-37.28 849.12-37.28L849.12-37.28L849.12-37.28Q842.32-37.28 838.36-33.24L838.36-33.24L838.36-33.24Q834.40-29.20 834.40-22.08L834.40-22.08L834.40 0L828.72 0L828.72-59.36L834.40-59.36L834.40-34.72L834.40-34.72Q836.72-38.40 840.80-40.40L840.80-40.40L840.80-40.40Q844.88-42.40 850.16-42.40L850.16-42.40ZM919.60-21.04L919.52-19.28L884.32-19.28L884.32-19.28Q884.80-12.72 889.36-8.68L889.36-8.68L889.36-8.68Q893.92-4.64 900.88-4.64L900.88-4.64L900.88-4.64Q904.80-4.64 908.08-6.04L908.08-6.04L908.08-6.04Q911.36-7.44 913.76-10.16L913.76-10.16L916.96-6.48L916.96-6.48Q914.16-3.12 909.96-1.36L909.96-1.36L909.96-1.36Q905.76 0.40 900.72 0.40L900.72 0.40L900.72 0.40Q894.24 0.40 889.24-2.36L889.24-2.36L889.24-2.36Q884.24-5.12 881.44-10L881.44-10L881.44-10Q878.64-14.88 878.64-21.04L878.64-21.04L878.64-21.04Q878.64-27.20 881.32-32.08L881.32-32.08L881.32-32.08Q884-36.96 888.68-39.68L888.68-39.68L888.68-39.68Q893.36-42.40 899.20-42.40L899.20-42.40L899.20-42.40Q905.04-42.40 909.68-39.68L909.68-39.68L909.68-39.68Q914.32-36.96 916.96-32.12L916.96-32.12L916.96-32.12Q919.60-27.28 919.60-21.04L919.60-21.04ZM899.20-37.52L899.20-37.52Q893.12-37.52 889-33.64L889-33.64L889-33.64Q884.88-29.76 884.32-23.52L884.32-23.52L914.16-23.52L914.16-23.52Q913.60-29.76 909.48-33.64L909.48-33.64L909.48-33.64Q905.36-37.52 899.20-37.52L899.20-37.52ZM994.32-56L1000.16-56L1000.16 0L995.28 0L959.28-45.44L959.28 0L953.36 0L953.36-56L958.24-56L994.32-10.56L994.32-56ZM1049.44-42.08L1055.12-42.08L1055.12 0L1049.68 0L1049.68-7.68L1049.68-7.68Q1047.44-3.84 1043.52-1.72L1043.52-1.72L1043.52-1.72Q1039.60 0.40 1034.56 0.40L1034.56 0.40L1034.56 0.40Q1026.32 0.40 1021.56-4.20L1021.56-4.20L1021.56-4.20Q1016.80-8.80 1016.80-17.68L1016.80-17.68L1016.80-42.08L1022.48-42.08L1022.48-18.24L1022.48-18.24Q1022.48-11.60 1025.76-8.16L1025.76-8.16L1025.76-8.16Q1029.04-4.72 1035.12-4.72L1035.12-4.72L1035.12-4.72Q1041.76-4.72 1045.60-8.76L1045.60-8.76L1045.60-8.76Q1049.44-12.80 1049.44-20L1049.44-20L1049.44-42.08ZM1123.52-42.40L1123.52-42.40Q1131.44-42.40 1135.96-37.84L1135.96-37.84L1135.96-37.84Q1140.48-33.28 1140.48-24.40L1140.48-24.40L1140.48 0L1134.80 0L1134.80-23.84L1134.80-23.84Q1134.80-30.40 1131.64-33.84L1131.64-33.84L1131.64-33.84Q1128.48-37.28 1122.72-37.28L1122.72-37.28L1122.72-37.28Q1116.16-37.28 1112.40-33.24L1112.40-33.24L1112.40-33.24Q1108.64-29.20 1108.64-22.08L1108.64-22.08L1108.64 0L1102.96 0L1102.96-23.84L1102.96-23.84Q1102.96-30.40 1099.80-33.84L1099.80-33.84L1099.80-33.84Q1096.64-37.28 1090.80-37.28L1090.80-37.28L1090.80-37.28Q1084.32-37.28 1080.52-33.24L1080.52-33.24L1080.52-33.24Q1076.72-29.20 1076.72-22.08L1076.72-22.08L1076.72 0L1071.04 0L1071.04-42.08L1076.48-42.08L1076.48-34.40L1076.48-34.40Q1078.72-38.24 1082.72-40.32L1082.72-40.32L1082.72-40.32Q1086.72-42.40 1091.92-42.40L1091.92-42.40L1091.92-42.40Q1097.20-42.40 1101.08-40.16L1101.08-40.16L1101.08-40.16Q1104.96-37.92 1106.88-33.52L1106.88-33.52L1106.88-33.52Q1109.20-37.68 1113.56-40.04L1113.56-40.04L1113.56-40.04Q1117.92-42.40 1123.52-42.40L1123.52-42.40ZM1177.60-42.40L1177.60-42.40Q1183.52-42.40 1188.32-39.72L1188.32-39.72L1188.32-39.72Q1193.12-37.04 1195.84-32.16L1195.84-32.16L1195.84-32.16Q1198.56-27.28 1198.56-21.04L1198.56-21.04L1198.56-21.04Q1198.56-14.80 1195.84-9.92L1195.84-9.92L1195.84-9.92Q1193.12-5.04 1188.32-2.32L1188.32-2.32L1188.32-2.32Q1183.52 0.40 1177.60 0.40L1177.60 0.40L1177.60 0.40Q1172.32 0.40 1168.12-1.84L1168.12-1.84L1168.12-1.84Q1163.92-4.08 1161.36-8.32L1161.36-8.32L1161.36 0L1155.92 0L1155.92-59.36L1161.60-59.36L1161.60-34.08L1161.60-34.08Q1164.24-38.16 1168.36-40.28L1168.36-40.28L1168.36-40.28Q1172.48-42.40 1177.60-42.40L1177.60-42.40ZM1177.20-4.64L1177.20-4.64Q1181.60-4.64 1185.20-6.68L1185.20-6.68L1185.20-6.68Q1188.80-8.72 1190.84-12.48L1190.84-12.48L1190.84-12.48Q1192.88-16.24 1192.88-21.04L1192.88-21.04L1192.88-21.04Q1192.88-25.84 1190.84-29.60L1190.84-29.60L1190.84-29.60Q1188.80-33.36 1185.20-35.40L1185.20-35.40L1185.20-35.40Q1181.60-37.44 1177.20-37.44L1177.20-37.44L1177.20-37.44Q1172.72-37.44 1169.16-35.40L1169.16-35.40L1169.16-35.40Q1165.60-33.36 1163.56-29.60L1163.56-29.60L1163.56-29.60Q1161.52-25.84 1161.52-21.04L1161.52-21.04L1161.52-21.04Q1161.52-16.24 1163.56-12.48L1163.56-12.48L1163.56-12.48Q1165.60-8.72 1169.16-6.68L1169.16-6.68L1169.16-6.68Q1172.72-4.64 1177.20-4.64L1177.20-4.64ZM1246.88-21.04L1246.80-19.28L1211.60-19.28L1211.60-19.28Q1212.08-12.72 1216.64-8.68L1216.64-8.68L1216.64-8.68Q1221.20-4.64 1228.16-4.64L1228.16-4.64L1228.16-4.64Q1232.08-4.64 1235.36-6.04L1235.36-6.04L1235.36-6.04Q1238.64-7.44 1241.04-10.16L1241.04-10.16L1244.24-6.48L1244.24-6.48Q1241.44-3.12 1237.24-1.36L1237.24-1.36L1237.24-1.36Q1233.04 0.40 1228 0.40L1228 0.40L1228 0.40Q1221.52 0.40 1216.52-2.36L1216.52-2.36L1216.52-2.36Q1211.52-5.12 1208.72-10L1208.72-10L1208.72-10Q1205.92-14.88 1205.92-21.04L1205.92-21.04L1205.92-21.04Q1205.92-27.20 1208.60-32.08L1208.60-32.08L1208.60-32.08Q1211.28-36.96 1215.96-39.68L1215.96-39.68L1215.96-39.68Q1220.64-42.40 1226.48-42.40L1226.48-42.40L1226.48-42.40Q1232.32-42.40 1236.96-39.68L1236.96-39.68L1236.96-39.68Q1241.60-36.96 1244.24-32.12L1244.24-32.12L1244.24-32.12Q1246.88-27.28 1246.88-21.04L1246.88-21.04ZM1226.48-37.52L1226.48-37.52Q1220.40-37.52 1216.28-33.64L1216.28-33.64L1216.28-33.64Q1212.16-29.76 1211.60-23.52L1211.60-23.52L1241.44-23.52L1241.44-23.52Q1240.88-29.76 1236.76-33.64L1236.76-33.64L1236.76-33.64Q1232.64-37.52 1226.48-37.52L1226.48-37.52ZM1263.92-33.84L1263.92-33.84Q1265.92-38.08 1269.88-40.24L1269.88-40.24L1269.88-40.24Q1273.84-42.40 1279.68-42.40L1279.68-42.40L1279.68-36.88L1278.32-36.96L1278.32-36.96Q1271.68-36.96 1267.92-32.88L1267.92-32.88L1267.92-32.88Q1264.16-28.80 1264.16-21.44L1264.16-21.44L1264.16 0L1258.48 0L1258.48-42.08L1263.92-42.08L1263.92-33.84Z" fill="#ccc"></path></g></g><style>text {
  font-size: 64px;
  font-family: Arial Black;
  dominant-baseline: central;
  text-anchor: middle;
}</style></svg>